<svg width="96" height="253" viewBox="0 0 96 253" fill="none" xmlns="http://www.w3.org/2000/svg">
<path d="M48.3838 1.92789L36.8901 2.3079C39.9926 11.4103 38.1553 25.4454 36.8489 31.3251L48.8424 30.9286C46.0604 19.4142 47.3775 6.79713 48.3838 1.92789Z" fill="black" stroke="black"/>
<path d="M48.4658 64.9596L36.9721 65.3396C40.0746 74.4421 38.2374 88.4771 36.9309 94.3568L48.9244 93.9603C46.1424 82.446 47.4595 69.8289 48.4658 64.9596Z" fill="black" stroke="black"/>
<path d="M48.5488 127.991L37.0551 128.371C40.1576 137.474 38.3204 151.509 37.014 157.389L49.0074 156.992C46.2254 145.478 47.5425 132.861 48.5488 127.991Z" fill="black" stroke="black"/>
<path d="M48.6318 191.023L37.1381 191.403C40.2406 200.505 38.4034 214.54 37.097 220.42L49.0904 220.024C46.3084 208.509 47.6255 195.892 48.6318 191.023Z" fill="black" stroke="black"/>
<path d="M48.4082 32.944L36.9145 33.324C40.017 42.4265 38.1797 56.4615 36.8733 62.3412L48.8668 61.9447C46.0848 50.4303 47.4019 37.8132 48.4082 32.944Z" fill="black" stroke="black"/>
<path d="M48.4912 95.9757L36.9975 96.3557C40.1 105.458 38.2628 119.493 36.9563 125.373L48.9498 124.976C46.1678 113.462 47.4849 100.845 48.4912 95.9757Z" fill="black" stroke="black"/>
<path d="M48.5742 159.007L37.0805 159.387C40.183 168.49 38.3458 182.525 37.0393 188.405L49.0328 188.008C46.2508 176.494 47.5679 163.877 48.5742 159.007Z" fill="black" stroke="black"/>
<path d="M48.6572 222.039L37.1635 222.419C40.266 231.522 38.4288 245.557 37.1223 251.436L49.1158 251.04C46.3338 239.525 47.6509 226.908 48.6572 222.039Z" fill="black" stroke="black"/>
<path d="M45.4019 61.5044C45.4047 61.5141 45.4075 61.5238 45.4103 61.5334C45.9417 62.083 68.6276 59.0501 74.9258 87.7883C57.3815 87.733 47.9459 70.2813 45.4103 61.5334C45.4019 61.5247 45.3991 61.5151 45.4019 61.5044Z" fill="black"/>
<path d="M45.4019 61.5044C47.925 70.2427 57.362 87.733 74.9258 87.7883C68.5276 58.5938 45.2171 62.1874 45.4019 61.5044Z" stroke="black"/>
<path d="M49.3789 64.4089C53.6491 69.5108 67.2228 82.4116 71.3836 84.6338C62.8677 76.8408 53.3994 67.1836 49.3789 64.4089Z" fill="#D9D9D9"/>
<path d="M44.8362 61.4452C44.8308 61.4496 44.8255 61.454 44.8201 61.4584C44.7062 61.9593 58.4226 76.4695 41.4889 88.1727C32.5646 76.3282 39.9814 65.4378 44.8201 61.4584C44.8219 61.4505 44.8272 61.4461 44.8362 61.4452Z" fill="black"/>
<path d="M44.8362 61.4452C39.9978 65.4137 32.5547 76.3151 41.4889 88.1727C58.6915 76.2837 44.2629 61.4978 44.8362 61.4452Z" stroke="black"/>
<path d="M44.8301 64.8807C43.4342 69.0838 41.3226 81.5838 41.8899 84.966C43.0039 77.2018 44.9385 68.3117 44.8301 64.8807Z" fill="#D9D9D9"/>
<path d="M45.1505 60.8127C45.1568 60.8069 45.1631 60.801 45.1694 60.7952C45.8038 60.6711 61.2613 75.5332 78.5346 57.1514C65.5268 47.4844 50.885 55.542 45.1694 60.7952C45.1593 60.7972 45.153 60.8029 45.1505 60.8127Z" fill="black"/>
<path d="M45.1505 60.8127C50.8526 55.5599 65.5124 47.4737 78.5346 57.1514C60.987 75.8251 45.3134 60.1907 45.1505 60.8127Z" stroke="black"/>
<path d="M49.3691 60.8029C54.7683 59.2839 70.4753 56.9792 74.5296 57.5908C64.8074 58.8079 53.5622 60.9165 49.3691 60.8029Z" fill="#D9D9D9"/>
<path d="M39.3079 179.864C39.3106 179.874 39.3133 179.884 39.316 179.893C39.1538 180.64 18.2719 190.011 28.0538 217.757C42.9386 208.47 41.768 188.665 39.316 179.893C39.3186 179.882 39.3159 179.872 39.3079 179.864Z" fill="black"/>
<path d="M39.3079 179.864C41.7654 188.621 42.9551 208.459 28.0538 217.757C18.1166 189.57 39.8247 180.348 39.3079 179.864Z" stroke="black"/>
<path d="M37.457 184.428C36.5141 191.014 31.7702 209.129 29.4037 213.21C32.5383 202.1 35.5007 188.904 37.457 184.428Z" fill="#D9D9D9"/>
<path d="M39.7582 179.516C39.7651 179.517 39.772 179.518 39.7789 179.519C40.1395 179.884 36.1219 199.443 56.6805 200.473C58.0284 185.704 45.9879 180.353 39.7789 179.519C39.7731 179.513 39.7663 179.512 39.7582 179.516Z" fill="black"/>
<path d="M39.7582 179.516C45.9613 180.341 58.0299 185.688 56.6805 200.473C35.7955 199.427 40.2733 179.258 39.7582 179.516Z" stroke="black"/>
<path d="M41.5723 182.433C44.9726 185.271 53.351 194.785 54.6501 197.959C49.6139 191.945 43.2871 185.407 41.5723 182.433Z" fill="#D9D9D9"/>
<path d="M39.1576 179.144C39.1492 179.142 39.1408 179.141 39.1323 179.139C38.5276 179.368 33.2154 200.142 8.85061 193.614C14.8167 178.546 31.5069 177.684 39.1323 179.139C39.1419 179.135 39.1503 179.137 39.1576 179.144Z" fill="black"/>
<path d="M39.1576 179.144C31.5439 177.682 14.8233 178.529 8.85061 193.614C33.6023 200.246 38.6916 178.701 39.1576 179.144Z" stroke="black"/>
<path d="M35.5664 181.357C30.1768 182.91 15.611 189.223 12.4866 191.878C21.3922 187.792 32.0619 183.662 35.5664 181.357Z" fill="#D9D9D9"/>
</svg>
