<svg width="75" height="70" viewBox="0 0 75 70" fill="none" xmlns="http://www.w3.org/2000/svg">
<path d="M21.5401 50.1857C21.0365 51.6429 20.3339 52.5681 19.5968 53.1591C19.2489 53.4407 18.8896 53.6356 18.5462 53.7686L17.3606 47.8435H8.93774L11.8743 67.893C12.0529 69.1151 12.8471 70.0001 13.7717 70.0001H19.2672C19.8715 70.0001 20.4391 69.6195 20.8053 68.9728C21.1739 68.326 21.2952 67.4876 21.1373 66.7017L19.0819 56.4417C19.2398 56.3829 19.4001 56.3148 19.5604 56.2344C20.6361 55.7021 21.7485 54.709 22.6182 53.1249C23.2522 51.9801 23.7444 50.529 24.0212 48.7778C23.3735 48.6106 22.6983 48.4592 22.0002 48.3261C21.8834 49.0253 21.7277 49.6441 21.5401 50.1857Z" fill="#D4A373"/>
<path d="M45.5338 0C43.9864 0 41.494 3.56752 40.4182 5.02157C39.4844 6.28394 32.1259 16.1817 13.4628 16.1817V45.6929C32.1258 45.6929 39.4844 55.5907 40.4182 56.8563C41.494 58.3074 43.9864 61.8749 45.5338 61.8749C47.0787 61.8749 48.3329 60.1792 48.3329 58.0909V3.78395C48.3329 1.69564 47.0787 0 45.5338 0Z" fill="#D4A373"/>
<path d="M10.9154 16.1819C4.88657 16.1819 0 22.7876 0 30.9373C0 39.087 4.88657 45.6929 10.9154 45.6929V16.1819Z" fill="#D4A373"/>
<path d="M50.592 25.3992V36.476C52.8535 36.476 54.6891 33.9976 54.6891 30.9376C54.6891 27.8776 52.8535 25.3992 50.592 25.3992Z" fill="#D4A373"/>
<path d="M75 29.1056H63.9725V31.9985H75V29.1056Z" fill="#D4A373"/>
<path d="M72.3792 9.59165L71.2303 7.15344L61.1962 15.7982L62.3497 18.2394L72.3792 9.59165Z" fill="#D4A373"/>
<path d="M61.1962 46.4975L71.2303 55.1452L72.3792 52.7041L62.3497 44.0593L61.1962 46.4975Z" fill="#D4A373"/>
</svg>
