<svg width="70" height="64" viewBox="0 0 70 64" fill="none" xmlns="http://www.w3.org/2000/svg">
<path d="M20.1302 25.3913C23.036 25.3913 25.3924 23.036 25.3924 20.1302L27.3138 0H18.8948L14.8693 20.1302C14.8693 23.036 17.2244 25.3913 20.1302 25.3913Z" fill="#D4A373"/>
<path d="M35.0007 25.3913C37.9053 25.3913 40.2616 23.036 40.2616 20.1302L39.2089 0H30.791L29.7384 20.1302C29.7385 23.036 32.0948 25.3913 35.0007 25.3913Z" fill="#D4A373"/>
<path d="M49.8698 25.3913C52.7744 25.3913 55.1308 23.036 55.1308 20.1302L51.1041 0.00012207H42.6862L44.6077 20.1303C44.6077 23.036 46.9629 25.3913 49.8698 25.3913Z" fill="#D4A373"/>
<path d="M62.9992 0.000136904H54.5813L59.4768 20.1303C59.4768 22.592 61.1693 24.6522 63.4514 25.2272V59.5626H55.523V39.6162H37.8115V59.5625H6.54855V25.2271C8.83094 24.6522 10.5221 22.5909 10.5221 20.1302L15.4187 0H6.99973L0 20.1302C0 21.8688 0.846836 23.4052 2.1458 24.3629V63.964H67.8542V24.363C69.1533 23.4052 70 21.869 70 20.1302L62.9992 0.000136904Z" fill="#D4A373"/>
<path d="M27.3358 34.0845H13.6106V47.8084H27.3358V34.0845Z" fill="#D4A373"/>
</svg>
