<svg width="70" height="70" viewBox="0 0 70 70" fill="none" xmlns="http://www.w3.org/2000/svg">
<path d="M35 0C15.67 0 0 15.67 0 35C0 54.33 15.67 70 35 70C54.33 70 70 54.33 70 35C70 15.67 54.33 0 35 0ZM35 11.7672C38.8914 11.7672 42.0462 14.9219 42.0462 18.8135C42.0462 22.705 38.8916 25.8597 35 25.8597C31.1086 25.8597 27.9538 22.705 27.9538 18.8135C27.9538 14.9219 31.1086 11.7672 35 11.7672ZM42.4499 58.2328H27.5502V52.2728H32.4265V37.7794H29.4465V31.8194H38.3864V32.3612V37.7794V52.2728H42.4499V58.2328Z" fill="#D4A373"/>
</svg>
