<svg width="70" height="70" viewBox="0 0 70 70" fill="none" xmlns="http://www.w3.org/2000/svg">
<path d="M57.7957 38.9952V32.5131C57.7957 19.8909 47.5661 9.66138 34.9422 9.66138C22.322 9.66138 12.0924 19.8909 12.0924 32.5131V38.9952C12.0924 51.6157 22.322 61.845 34.9422 61.845C47.5661 61.845 57.7957 51.6157 57.7957 38.9952ZM34.9422 57.6907C24.6332 57.6907 16.2487 49.3042 16.2487 38.9952V32.5131C16.2487 31.7989 16.2957 31.0934 16.3751 30.4008C27.2992 29.5705 34.8338 27.3822 39.8943 25.098C43.0592 27.1182 47.4542 29.2487 53.5708 31.1026C53.6072 31.5691 53.6396 32.0358 53.6396 32.5132V38.9953C53.6395 49.3042 45.2549 57.6907 34.9422 57.6907Z" fill="#D4A373"/>
<path d="M66.4986 24.5826C62.8417 10.4646 50.0404 0.00369141 34.7903 0C19.4895 0.00369141 6.65574 10.5369 3.04938 24.7291C1.25877 25.4976 0 27.2755 0 29.3482V41.9144C0 44.6887 2.24998 46.9403 5.02428 46.9403C7.79871 46.9403 10.0522 44.6887 10.0522 41.9144V29.3482C10.0522 27.393 8.91994 25.7184 7.28861 24.8864C8.64869 20.1678 11.1698 15.9374 14.5555 12.55C19.7462 7.3593 26.8938 4.1527 34.7901 4.1527C42.69 4.1527 49.8377 7.35943 55.0283 12.55C58.4611 15.9845 61.0002 20.2871 62.3422 25.0854C60.9137 25.9697 59.9478 27.5414 59.9478 29.3482V41.9144C59.9478 43.9057 61.116 45.6129 62.7979 46.425C62.1288 48.9461 61.1667 51.3373 60.0236 53.4406C58.9023 55.5043 57.6111 57.2857 56.2763 58.6493C55.278 57.8971 54.0481 57.4358 52.7025 57.4358C49.4071 57.4358 46.734 60.1089 46.734 63.4061C46.734 66.703 49.4071 69.3781 52.7025 69.3781C56.0012 69.3781 58.6744 66.703 58.6744 63.4061C58.6744 62.6717 58.526 61.9754 58.2801 61.3242L58.5874 61.0385C61.8971 57.6583 64.6607 52.5328 66.0967 46.805C68.3286 46.2931 69.9996 44.3018 69.9996 41.9146V29.3483C70 27.1091 68.5241 25.2319 66.4986 24.5826Z" fill="#D4A373"/>
<path d="M25.939 33.9021C24.3618 33.9021 23.085 35.1807 23.085 36.7598C23.085 38.3368 24.3618 39.6138 25.939 39.6138C27.5162 39.6138 28.7967 38.3368 28.7967 36.7598C28.7967 35.1808 27.5162 33.9021 25.939 33.9021Z" fill="#D4A373"/>
<path d="M43.645 33.9021C42.0681 33.9021 40.7876 35.1807 40.7876 36.7598C40.7876 38.3368 42.0681 39.6138 43.645 39.6138C45.2222 39.6138 46.4992 38.3368 46.4992 36.7598C46.4992 35.1808 45.2222 33.9021 43.645 33.9021Z" fill="#D4A373"/>
</svg>
