<svg width="70" height="71" viewBox="0 0 70 71" fill="none" xmlns="http://www.w3.org/2000/svg">
<path d="M0 6.21491V63.9544C0 67.3845 3.12131 70.1693 6.97215 70.1693H9.52478V0H6.97215C3.12131 0 0 2.7847 0 6.21491Z" fill="#D4A373"/>
<path d="M63.0277 0H13.2122V70.1692H63.0278C66.8787 70.1692 70 67.3845 70 63.9543V6.21491C69.9998 2.7847 66.8787 0 63.0277 0ZM40.3737 27.2531C40.3932 31.9114 39.1462 33.1207 37.0866 34.5718C35.4271 35.7409 34.0068 36.4104 34.0068 39.3126V57.9865H29.0186V39.3127C29.0186 36.4105 27.6009 35.7409 25.9414 34.5719C23.8817 33.1208 22.6322 31.9114 22.6517 27.2532C22.6517 27.2532 22.6517 21.8984 22.6517 18.8655C22.6517 16.3334 26.7932 16.2464 26.7932 18.8371V27.6212C26.7932 28.1839 27.3032 28.6379 27.9328 28.6379H28.2355C28.865 28.6379 29.3751 28.184 29.3751 27.6212V18.797C29.3751 17.3492 30.4659 16.9169 31.5128 16.9169C32.5597 16.9169 33.6507 17.3492 33.6507 18.797V27.6212C33.6507 28.1839 34.1632 28.6379 34.7904 28.6379H35.0955C35.7227 28.6379 36.2327 28.184 36.2327 27.6212V18.8371C36.2327 16.2464 40.374 16.3334 40.374 18.8655C40.3737 21.8983 40.3737 27.2531 40.3737 27.2531ZM55.6554 39.3638C55.6554 48.4178 55.6554 57.2931 55.6554 58.0377C55.6554 58.0703 55.6554 58.0932 55.6554 58.0932L55.6308 58.0377H50.6647V46.8838C50.5622 41.308 45.9694 42.8179 46.2696 34.3062C46.4599 28.8219 48.256 22.362 49.3152 19.7123C50.9649 15.5876 55.6552 16.4792 55.6552 19.7123C55.6554 21.2854 55.6554 30.409 55.6554 39.3638Z" fill="#D4A373"/>
</svg>
