<svg width="69" height="74" viewBox="0 0 69 74" fill="none" xmlns="http://www.w3.org/2000/svg">
<path d="M58.6963 6.44141H58.307V10.3478C58.307 12.7922 56.3184 14.7819 53.8719 14.7819C51.4276 14.7819 49.4368 12.792 49.4368 10.3478V6.44141H38.5978V10.3478C38.5978 12.7922 36.6071 14.7819 34.1627 14.7819C31.7184 14.7819 29.7277 12.792 29.7277 10.3478V6.44141H18.8886V10.3478C18.8886 12.7922 16.8979 14.7819 14.4536 14.7819C12.0092 14.7819 10.0185 12.792 10.0185 10.3478V6.44141H9.63145C4.3115 6.44141 0.000244141 10.7537 0.000244141 16.0726V23.4299H68.3278V16.0726C68.3275 10.7538 64.014 6.44141 58.6963 6.44141Z" fill="#D4A373"/>
<path d="M14.4556 12.811C15.8161 12.811 16.9197 11.7083 16.9197 10.3478V2.463C16.9199 1.10267 15.8161 0 14.4556 0C13.0951 0 11.9915 1.10267 11.9915 2.46314V10.348C11.9915 11.7083 13.0953 12.811 14.4556 12.811Z" fill="#D4A373"/>
<path d="M34.1648 12.811C35.5253 12.811 36.6291 11.7083 36.6291 10.3478V2.463C36.6291 1.10267 35.5253 0 34.1648 0C32.8045 0 31.7007 1.10267 31.7007 2.46314V10.348C31.7007 11.7083 32.8045 12.811 34.1648 12.811Z" fill="#D4A373"/>
<path d="M53.8741 12.811C55.2344 12.811 56.3382 11.7083 56.3382 10.3478V2.463C56.3382 1.10267 55.2344 0 53.8741 0C52.5137 0 51.4099 1.10267 51.4099 2.46314V10.348C51.4099 11.7083 52.5137 12.811 53.8741 12.811Z" fill="#D4A373"/>
<path d="M0 63.8227C0 69.1415 4.31125 73.4539 9.63121 73.4539H58.6964C64.014 73.4539 68.3276 69.1417 68.3276 63.8227V26.8275H0V63.8227ZM39.8388 41.218C39.8388 40.9526 39.9395 40.7479 40.1573 40.5754L43.4976 38.1532C43.7022 37.9896 43.9179 37.9176 44.2099 37.9176H46.8102C47.1453 37.9176 47.3886 38.1609 47.3886 38.4984V58.6754C47.3886 59.0128 47.1453 59.2561 46.8102 59.2561H43.9964C43.659 59.2561 43.4145 59.0128 43.4145 58.6754V42.7763L40.6098 44.7462C40.4947 44.8203 40.3863 44.8567 40.2813 44.8567C40.143 44.8567 40.017 44.7926 39.9372 44.682C39.872 44.5913 39.8388 44.4751 39.8388 44.3369V41.218ZM21.3759 54.196L24.0924 53.57L24.1975 53.5623C24.4541 53.5623 24.6664 53.7192 24.7517 53.9726C25.0128 54.7213 25.7394 55.9854 27.6395 55.9854C29.3295 55.9854 30.4211 54.8804 30.4211 53.1716C30.4211 51.2483 29.2255 50.0539 27.3022 50.0539H26.4161C26.0788 50.0539 25.8365 49.8094 25.8365 49.4733V47.0589C25.8365 46.7205 26.0788 46.477 26.4161 46.477H27.2412C28.9124 46.477 29.993 45.3964 29.993 43.7252C29.993 42.1614 29.0331 41.188 27.4867 41.188C26.1849 41.188 25.3377 41.8417 24.9683 43.128C24.8788 43.4011 24.6818 43.5505 24.422 43.5505L24.2926 43.5384L21.6769 42.9234C21.5386 42.9013 21.4059 42.8205 21.3196 42.6999C21.2289 42.5739 21.1947 42.4114 21.2223 42.2442C21.7333 39.4537 24.2993 37.5813 27.6095 37.5813C31.4905 37.5813 33.9979 39.9449 33.9979 43.6035C33.9979 45.3555 33.2491 46.8697 31.8798 47.9103C33.1994 48.6891 34.4259 50.5848 34.4259 53.0203C34.4259 56.8891 31.6342 59.5921 27.6395 59.5921C24.1655 59.5921 21.6016 57.7992 20.9503 54.9147C20.8949 54.582 21.0675 54.2978 21.3759 54.196Z" fill="#D4A373"/>
</svg>
