<svg width="2600" height="2600" viewBox="0 0 2600 2600" fill="none" xmlns="http://www.w3.org/2000/svg">
<path d="M1412 605.6C1448 607.5 1453.9 608.5 1468 615C1477.9 619.6 1484.4 620.5 1513.5 621.5C1541.1 622.4 1549.5 623.9 1576.5 632.7C1594.3 638.5 1644.5 657.2 1651.3 660.6C1654.2 662.1 1664.1 668.5 1673.5 674.8C1720.9 707.1 1732.7 714.2 1747.2 718.9C1766.3 725.2 1800.9 751.6 1866.4 809.8C1877.8 819.9 1886.7 826.9 1893.7 831.1C1913.2 843 1928.5 853.2 1937.1 860.1C1948.8 869.4 1965.1 886.6 1973 897.9C1987.5 918.8 1990.9 923.3 1999.5 933.7C2033.5 974.5 2091.3 1021.5 2153 1058.4C2169 1068 2190.3 1079.1 2196.5 1081C2201.7 1082.6 2209.2 1086.4 2226.5 1096C2241.5 1104.4 2254.4 1110.4 2265.3 1113.9C2272.6 1116.4 2274.8 1118.6 2273 1122C2271.6 1124.6 2268.9 1124.5 2260.4 1121.6C2249.6 1117.9 2237.7 1112.3 2223.1 1104.3C2206.1 1094.9 2197.5 1090.6 2192.5 1089C2180.9 1085.4 2147.7 1066.6 2119.5 1047.7C2052.6 1003 2001.2 955.5 1971.1 910.6C1958.7 892.1 1946.2 878.6 1928.9 864.8C1923.9 860.8 1905.9 849 1889.5 839C1881.7 834.2 1872.6 826.9 1854.7 811.2C1796.8 760 1763.4 734.3 1747 728.3C1727.8 721.3 1714.2 713.6 1682.8 691.8C1650.6 669.5 1647.7 667.9 1625 659.4C1573.4 640.2 1554.1 634 1539.4 632.1C1535.1 631.5 1520.7 630.6 1507.5 630C1480.9 628.9 1473.2 627.7 1464 623C1453 617.5 1445.4 616.1 1417.2 614.9C1403.1 614.3 1387.4 614 1382.4 614.2C1374.1 614.5 1372.7 614.9 1368.4 617.8C1359.3 623.7 1355.4 625.1 1342.7 626.6C1323.9 628.8 1317.5 632.8 1312.9 645.5L1311.4 649.5L1300 650.1C1276.4 651.4 1258.1 657 1246.3 666.4C1243 669 1240 670.3 1232.7 671.9C1227.6 673.1 1222 674.9 1220.3 676C1218.6 677 1215.5 680.7 1213.5 684.2C1202.6 702.7 1188.7 711.6 1165 715C1153.1 716.7 1147.6 719.2 1143.8 724.9C1139.1 731.9 1136 735 1130.9 737.5C1126 740.1 1125 741.4 1125 746.1V749L1129.1 744.5C1138.5 734.3 1149.1 733.3 1156.4 742C1160.9 747.4 1159.4 751.9 1150.5 759.4C1143.7 765.2 1142 768.4 1142 774.9V780L1136.7 782.6C1120.3 790.9 1112.2 796.7 1109.3 802.5C1107.8 805.4 1107.9 805.3 1111.3 801.7C1117.9 794.6 1126.5 793.1 1135.8 797.5C1143 800.8 1145.5 806.2 1147 821.5C1148.3 835.6 1148.7 837.4 1151.1 840.4C1154.5 844.7 1153.3 847.2 1147 849.2C1144 850.2 1136 853.8 1129.2 857.2C1117 863.5 1116.9 863.5 1108.7 863.4C1101.9 863.4 1098.3 862.6 1087.5 859.1C1069.7 853.4 1063.9 852.9 1053 856.7C1048.3 858.4 1041.3 860.5 1037.4 861.4C1028.3 863.6 1025 865.7 1023.6 870C1022.6 873.2 1022.1 873.5 1019 873.4C1017.1 873.3 1013.5 872.5 1011 871.5C1003.8 868.8 994.7 869.8 982 874.9C963.8 882.3 958 886.3 958 891.6C958 893.7 958.4 893.5 962.6 889.5C970.2 882.1 980.3 880.3 986.5 885.2C990.3 888.2 992.1 892.4 992.7 900.3C993 904.3 993.8 908.6 994.5 910L995.8 912.4L997.3 908.9C1000.6 901 1010.8 897 1018 900.7C1023 903.3 1025.5 908.2 1025.4 915.5C1025.4 930 1014 938.6 993.5 939.7L984.5 940.2L976.5 936C970.7 932.9 967.5 931.8 964.5 931.8C941.4 932.5 936 932.7 935.8 933.1C933.1 937.3 926.7 951.4 926.1 953.9C925.8 955.8 924.8 957.6 924 958C915.7 961.8 912.5 963.8 907 968.3C894.2 978.8 893.8 979.3 893 984.6C892.5 987.3 892.4 990.8 892.7 992.4C893.3 995.2 893.3 995.1 895.6 990.3C900.8 979.3 908.9 973 920.1 970.9C928 969.5 934.4 970.7 939.5 974.5C941.2 975.9 943.6 977 944.8 977C948.1 977 952 978.8 952 980.4C952 981.1 953.8 985.5 956.1 990C959.1 995.9 961.3 998.9 964.1 1000.8C966.2 1002.3 968.1 1004.1 968.4 1004.8C968.7 1005.6 968.3 1008.4 967.4 1011.2C965.1 1018 966 1033.2 968.9 1039.3C973.6 1049.1 969.9 1053.4 953.6 1056.9C946.3 1058.5 944.7 1059.3 941.2 1062.8C939 1065 934 1068.7 930 1071C922.2 1075.6 920 1078.8 920 1085.7V1089.5L921.9 1085.4C925.8 1076.8 935.9 1071.3 945.9 1072.2C954.7 1073.1 957.8 1076.6 960.1 1088.4C960.9 1092.7 962.1 1095.2 964.5 1097.9C968.4 1102.1 969.6 1101.7 968.1 1096.3C964.9 1084.8 967.7 1081.3 979.3 1082.4C988.3 1083.2 994.8 1086.3 997.5 1091C1000.4 1096 1000.3 1107.7 997.4 1111.7C994.6 1115.5 988.7 1118.7 982 1120.1C969.7 1122.6 959 1133.1 959 1142.7C959 1145.1 959.4 1144.8 962.2 1140C966.8 1132.5 972 1129.8 981.5 1130.1C985.3 1130.2 989.3 1130 990.2 1129.6C993.5 1128.2 995.6 1130.7 997.9 1138.7C1000.9 1149 1003.5 1153.9 1006.7 1155.1C1011.4 1156.9 1012.2 1155.6 1009.8 1150.3C1003.2 1135.3 1013.5 1119.4 1027.4 1123.1C1031 1124.1 1035.2 1126.2 1044 1131.9C1045.4 1132.8 1043.7 1130.9 1040.4 1127.7C1030.5 1118.5 1027.6 1108.8 1030 1092.9C1032.3 1077.2 1035.1 1075.4 1050 1080.5C1059.2 1083.6 1059.6 1083.6 1057.2 1080.2C1051.8 1072.6 1052.6 1063.5 1059.4 1054.2C1064.8 1046.9 1075.3 1038.8 1078.8 1039.2C1082 1039.6 1082.6 1040.8 1084 1049.8C1084.8 1054.9 1085.9 1058 1087.7 1060C1090.5 1063.3 1094.7 1064.2 1093.5 1061.2C1093.1 1060.3 1092.5 1056 1092.2 1051.7C1091.5 1040 1095.1 1032 1103.1 1028C1108.4 1025.2 1114.6 1024.5 1121.1 1025.9C1127.7 1027.3 1132.3 1030.3 1134.9 1035C1139 1042.5 1138.5 1049.2 1132.8 1063C1128.8 1072.6 1128.4 1083.1 1131.8 1089.5L1133.9 1093.5L1134 1084.7C1134 1074.5 1135.3 1070.7 1140.3 1066.3C1144.6 1062.5 1151.3 1061.2 1157.1 1062.9C1159.2 1063.6 1165.1 1066.9 1170.1 1070.3C1175 1073.7 1180.1 1077.2 1181.3 1078C1182.6 1078.9 1182 1077.7 1179.7 1075.1C1177.7 1072.6 1175.5 1068.8 1174.9 1066.6C1172.6 1058.3 1176 1043.9 1181.1 1039.6C1184.8 1036.4 1189.4 1035.6 1197.9 1036.4L1204.5 1037L1201.3 1035C1196.7 1032.3 1194.9 1028.9 1194.3 1022.2C1193.9 1017.6 1194.2 1015.6 1195.8 1012.3C1201.7 1000.9 1220 994.1 1237.7 996.8C1241.9 997.5 1245.9 998.5 1246.5 999C1247.1 999.5 1248.2 1002.3 1248.9 1005.2C1251.2 1015.6 1258.5 1025 1264.1 1025C1265.7 1025 1265.5 1024.2 1262.5 1018.2C1257.7 1008.7 1257.5 1007.5 1260.2 1004.7C1261.5 1003.4 1263.1 1001.2 1263.9 999.7C1266.1 995.5 1269.1 995.3 1275.3 998.9C1282.8 1003.2 1289.6 1004.5 1297.3 1003.1C1300.7 1002.5 1304.6 1001.2 1306 1000.2C1309.4 997.6 1309.8 992.3 1306.9 988.6L1304.7 985.8L1302.9 989.3C1300.7 993.5 1296.5 997 1293.7 997C1290 997 1283.1 992.9 1278.9 988.2C1270.6 978.8 1268.2 969.6 1271.6 959.7L1273.2 955L1279.3 958.4C1285.9 962 1292.4 964.4 1294 963.8C1294.6 963.6 1293.4 961.3 1291.5 958.5C1289.5 955.8 1287.2 951.1 1286.4 948.2C1284.9 943 1284.9 942.6 1287.4 934.5L1290 926.1L1295.3 928.5C1298.6 930.1 1302.3 931 1305.6 931H1310.7L1305.9 926.1C1301.6 921.8 1301 920.8 1301 917C1301 913.1 1301.5 912.2 1306.3 907.3C1311.2 902.5 1312.1 902 1316.2 902C1319.8 902 1322.1 902.9 1329.1 907.4C1333.8 910.4 1339.7 913.5 1342.3 914.4C1347.2 916 1358.4 916.4 1363 915.1C1365.4 914.4 1365.3 914.3 1361.5 913C1353.4 910.4 1344 904.9 1338.3 899.6C1333 894.6 1332.7 894.1 1335 894C1338.5 894 1342 892.9 1342 892C1342 891.5 1340.2 888.5 1338 885.3C1335.8 882.1 1333.7 877.8 1333.3 875.7C1332.8 872.4 1333.1 871.5 1335.7 868.7C1337.4 866.9 1339.7 863.7 1341 861.4C1343.4 857 1347.5 854 1351.1 854C1352.4 854 1355.9 855.5 1359 857.4C1362 859.3 1366.4 861.3 1368.6 862C1374.3 863.7 1384.6 862.5 1389.1 859.7L1392.5 857.6L1385.3 856.8C1374.3 855.7 1370.3 853 1367.6 845.2C1365.3 838.7 1364.7 831.9 1366.2 829C1367 827.5 1369 826.1 1371.5 825.4C1374.9 824.5 1376 824.6 1379 826.1C1382.7 828.1 1392 828.7 1392 827C1392 826.5 1390.8 825.3 1389.4 824.3C1385.4 821.7 1381 815.1 1381 811.8C1381 809.9 1382.3 807.6 1385.1 804.5C1387.3 802.1 1389.5 798.9 1389.9 797.3L1390.7 794.5L1392.9 798.8C1394.8 802.6 1399.2 806.1 1400.5 804.9C1400.7 804.6 1400.2 802.5 1399.4 800.1C1397 793 1399.4 787.7 1406.3 785.1C1412.4 782.8 1423.6 784.6 1428 788.5C1429.6 790 1429.8 791.3 1429.3 799.5C1428.6 810.8 1429.9 816.5 1434.3 820.9C1435.9 822.7 1437.6 823.8 1437.9 823.5C1438.2 823.1 1439 819.7 1439.6 815.9C1441.1 807.3 1443.7 802.1 1447.9 799.6C1459.1 793.1 1486.1 806.9 1482.1 817.2C1480.8 820.5 1477.2 823.4 1471.9 825.4C1467 827.2 1465 829.9 1465 834.8C1465 840.1 1463 844.8 1459.7 847.3C1454.4 851.4 1450.5 859.4 1450.5 866.7C1450.5 871.9 1450.9 873.5 1453.5 877.1C1458.1 883.6 1458.7 883.2 1459.2 873.3C1459.8 861.6 1461.9 857.5 1470.3 851.9C1473.7 849.6 1478.4 846 1480.7 843.8C1483.1 841.7 1485.9 840 1487.1 840C1490.6 840 1499.9 845.9 1500.4 848.3C1502.7 859.3 1503.5 861.6 1506.5 864.8C1509.4 868 1510.4 868.4 1515.9 868.8C1519.2 869 1522 869 1522 868.7C1522 868.5 1521.1 866.1 1519.9 863.5C1518.6 860.7 1517.6 855.7 1517.3 851.1C1516.4 838.4 1520.5 828.4 1528.1 824.5C1531.6 822.6 1542.9 822.5 1543.4 824.2C1543.7 824.9 1544.6 828.1 1545.6 831.3C1546.7 835.1 1548.3 837.9 1550.2 839.5C1555.1 843.7 1555.7 843 1556.2 832.7C1556.5 825.1 1557.1 822.4 1559.3 817.9C1563.2 810.1 1565.6 808.7 1577 807.9C1582.2 807.5 1588.2 806.6 1590.2 805.9C1593.2 804.9 1594.8 804.9 1598.2 805.9C1604.6 807.8 1610.8 811.7 1612.5 815C1617 823.7 1611.7 830.2 1596.5 834.5C1589.6 836.5 1581.9 840.2 1577.2 843.7C1571.7 847.8 1568.5 856.3 1569.8 862.9L1570.5 866.3L1576 859.1C1587.8 843.5 1597.9 840.1 1605.5 849.1C1610.9 855.6 1610.1 860 1601.4 870.5C1597.7 874.9 1594.1 880 1593.2 882C1591.5 886.2 1591.3 893.5 1593 898.4C1594.3 902.4 1596 903.2 1596 899.7C1596.1 896.7 1600.3 886.7 1603.5 882C1606.8 877.2 1612.4 873.3 1617.2 872.5C1620.7 871.8 1621.1 872 1623.1 875.4C1625.5 879.6 1627.8 879.9 1632.1 876.8C1634.2 875.2 1636.9 874.5 1641.4 874.2C1647.3 873.8 1648 874 1651.1 876.8L1654.4 879.7L1654 888.6C1653.7 893.5 1653.5 902.4 1653.5 908.3C1653.5 919 1653.5 919.2 1656.3 921.6C1661.3 925.9 1662.3 925 1661.5 916.7C1660.7 908.4 1662.2 898.5 1664.7 895.8C1667.1 893.1 1676 887.5 1680 886.1C1683.1 885.1 1684 885.2 1689.5 887.9C1692.8 889.6 1697.1 892.2 1698.9 893.8C1701.9 896.3 1702.5 897.5 1703.2 902.6C1705.3 919.6 1706.4 922.3 1713 926.7C1718 930.2 1719.2 929.8 1717.4 925.4C1715 919.6 1715.3 909.9 1718.1 904.3C1725.6 889.3 1746.9 891.6 1754 908.1C1755.6 911.9 1756 914.3 1755.6 916.9C1755.2 918.9 1754.3 928.4 1753.5 938C1751.7 960.1 1750.6 963.8 1743.8 970.7C1741 973.6 1735.4 980.6 1731.6 986.2C1725.1 995.5 1723.9 996.7 1717.5 1000.1C1706.8 1005.9 1689.8 1011.3 1681.9 1011.4C1675.9 1011.5 1674.4 1011.1 1667.1 1007.2C1660.3 1003.7 1658.1 1003 1653.2 1003C1647.5 1003 1639.3 1005.2 1633.4 1008.3L1630.5 1009.8L1633.1 1010.8C1636.6 1012.2 1642 1016.9 1642 1018.6C1642 1021.8 1629.1 1026 1619.2 1026C1613.1 1026 1612.8 1025.9 1608.6 1021.5C1603.4 1016.2 1600.7 1015 1593.4 1015C1578.4 1015 1563.9 1032.2 1570.6 1041.9L1572.3 1044.2L1575.1 1038.4C1578.9 1030.6 1583.3 1027.5 1590.9 1027.5C1594 1027.5 1598.7 1028.4 1601.4 1029.4L1606.2 1031.2L1605.6 1035.3C1604.5 1041.9 1602 1045.9 1596.4 1050.2C1590.4 1054.7 1589.6 1056.5 1588.5 1068.8C1587.9 1075.9 1587.9 1076.1 1591 1079.2C1594.6 1082.7 1596 1082 1596 1076.5C1596 1072.3 1597.9 1065.8 1599.8 1063.7C1601.5 1061.7 1607 1061.4 1610.3 1063.1C1611.5 1063.8 1614.6 1066.2 1617.1 1068.5C1619.6 1070.8 1622.7 1073.1 1623.9 1073.5C1626 1074.1 1626.2 1074.6 1625.6 1078.6C1624.9 1083.9 1620.1 1093.6 1615.9 1098.5C1607.6 1108 1595.6 1110.4 1587 1104.3C1584.5 1102.6 1579.8 1100.4 1576.5 1099.5C1568.6 1097.3 1565.7 1095 1561.7 1088.2C1558.8 1083.1 1557.8 1082.3 1553 1080.6C1546 1078.3 1534.1 1077.3 1531.1 1078.9C1528.8 1080.2 1525 1085.6 1525 1087.7C1525 1088.6 1526 1088.5 1529.1 1087.5C1537.1 1084.6 1544 1086 1544 1090.5C1544 1094.2 1543 1096 1539.9 1097.6C1537.2 1098.9 1536.5 1098.8 1527.8 1095.4C1522.7 1093.4 1516.2 1091.3 1513.5 1090.7C1508.6 1089.7 1508.1 1089.8 1498 1094.4C1480.7 1102.2 1477.1 1105.5 1480 1111C1481.2 1113.2 1481.2 1113.2 1485.3 1109.2C1490.3 1104.3 1496.4 1101.4 1504.4 1100.2C1511.7 1099 1513.7 1099.5 1517.6 1103.2C1522.5 1107.8 1523.5 1112.1 1521.6 1121.1C1519.2 1132.9 1521.4 1138 1528.9 1138H1531.9L1531.4 1132.7C1530.8 1126.9 1532.1 1123.8 1536.1 1120.8C1539.1 1118.5 1545.8 1116.8 1546.6 1118.1C1547.4 1119.5 1544.2 1131 1541.9 1134.7C1537.9 1141.1 1524.2 1148 1515.3 1148C1510.7 1148 1508.6 1146.7 1500 1138.5C1496.4 1135.1 1492.1 1131.6 1490.3 1130.7C1483.1 1126.9 1474 1129.7 1464.2 1138.5C1459.5 1142.8 1458.8 1143.1 1455.3 1142.4C1453.2 1142 1448.7 1140.6 1445.3 1139.3C1438.7 1136.7 1438.3 1136.7 1424.5 1138.9C1412 1141 1408.7 1142 1403.7 1145.8C1397.7 1150.3 1395.6 1153.9 1396.9 1157.3C1398.4 1161.1 1399.6 1161.3 1401 1158C1403.6 1151.7 1412.6 1146 1420 1146C1423.5 1146.1 1430 1149.2 1432.8 1152.3C1435.4 1155 1438 1161.7 1437.3 1163.6C1437.1 1164.2 1435.8 1165.2 1434.4 1165.9C1432.8 1166.6 1431 1169 1429.4 1172.8C1428 1175.9 1425.7 1180.7 1424.3 1183.4C1422.3 1187.2 1421.7 1189.9 1421.6 1194.7C1421.5 1200.4 1421.8 1201.2 1424.5 1203.9C1426.1 1205.5 1428.7 1207.2 1430.1 1207.5L1432.7 1208.1L1432.3 1200.8C1431.9 1194.6 1432.2 1192.8 1434.2 1189C1437.6 1182.4 1443.1 1179.6 1452.9 1179.6C1462.1 1179.7 1466.8 1181.8 1472.2 1188.3C1474.6 1191.2 1477 1192.9 1479.1 1193.4C1481.8 1193.9 1482.1 1194.3 1481.6 1196.2C1479 1205.9 1480.1 1213.5 1484.5 1216.4C1486.7 1217.8 1486.9 1217.8 1488 1215C1489.8 1210.5 1497.3 1203 1499.8 1203C1502.4 1203 1506 1206.3 1506.1 1208.7C1506.6 1216.5 1500.4 1222 1491 1222C1483 1222 1478 1227 1473.9 1239.2C1472.3 1244 1471.9 1247.3 1472.2 1252.7C1472.5 1260.2 1474.2 1263.7 1478.7 1266.7C1480.9 1268.1 1480.9 1268.1 1480.3 1260.6C1479.3 1247.1 1483.6 1239 1491.8 1239C1493.8 1239 1497.5 1238 1500 1236.9C1509.1 1232.8 1514.8 1236.9 1517.4 1249.2C1518.2 1253.2 1519.2 1258 1519.5 1259.7C1520.1 1262.7 1522.2 1265.7 1529.2 1273.1C1532.2 1276.4 1536.7 1277.2 1535.5 1274.2C1529.9 1260.9 1528.3 1248.2 1531.4 1242.2C1533.5 1238.2 1539.7 1235.1 1545.7 1235C1549.5 1235 1550.1 1235.4 1552.7 1239.2C1558.1 1247.2 1568.4 1252.3 1575.3 1250.4L1578.4 1249.5L1571.8 1245.3C1562.4 1239.5 1561.5 1237.7 1562.8 1228.9C1564.3 1218.8 1567.4 1213.3 1573.9 1208.8C1576.9 1206.8 1579.8 1204.4 1580.3 1203.5C1581 1202.2 1582.6 1203.2 1589.3 1209.7C1597.3 1217.4 1602.9 1221 1606.7 1221C1608.6 1221 1608.5 1220.7 1606.2 1213.7C1604.2 1208.1 1603.7 1204.4 1603.6 1197C1603.5 1184.7 1604.7 1182.5 1611.8 1181.8C1614.6 1181.5 1619.9 1179.8 1624.3 1177.6C1632.1 1173.7 1633.9 1173.6 1638.7 1176.6C1640.7 1177.8 1641 1178.9 1641 1184C1641 1196.3 1645.6 1207.1 1651.6 1208.6C1655 1209.5 1656 1207.9 1656 1201.1C1656 1185.6 1662.2 1181.6 1675.5 1188.8C1679.9 1191.2 1681 1192.5 1685.1 1200.3C1690.8 1211 1694.2 1215.5 1698 1217.5C1700.9 1219 1706.1 1219.5 1707.3 1218.4C1707.6 1218.1 1706.1 1215.6 1704 1212.8C1699.5 1206.8 1696.5 1198.4 1697.5 1194C1698.4 1190.1 1702.1 1185.6 1705.8 1184.1C1708.5 1183 1709 1183.1 1711.8 1185.9C1714.1 1188.2 1715.8 1189 1718.4 1189C1722.1 1189 1722.6 1188.5 1721.1 1186.1C1720 1184.4 1721.5 1181 1723.3 1181C1724 1181 1728 1179.3 1732.2 1177.2C1738.1 1174.3 1740.4 1173.6 1741.7 1174.4C1742.7 1174.9 1745.1 1175.6 1747 1176L1750.4 1176.5L1751.7 1186C1753.4 1199.6 1753.3 1214.6 1751.4 1220.9C1750.5 1224.2 1748.4 1227.8 1746.1 1230.3C1742.8 1233.8 1741.6 1234.4 1735.9 1235.1C1731.1 1235.8 1726.4 1237.5 1717.4 1242.1C1698.9 1251.4 1695.6 1251.2 1683.5 1240.3C1669.9 1227.9 1662.9 1227 1653.9 1236.2C1645.7 1244.6 1643.7 1253.1 1648.6 1258.9L1651.1 1262L1647.8 1266.6C1644.9 1270.6 1644.5 1272 1644.5 1277.2L1644.6 1283.2L1641.5 1282.6C1639.9 1282.3 1634.2 1281.7 1628.9 1281.4C1619.7 1280.7 1619.1 1280.8 1612.9 1283.8C1604.6 1287.8 1598.6 1293 1595 1299.4C1590.6 1307 1591.2 1315.6 1596.4 1319.9C1597.8 1321.1 1598 1320.9 1598 1318.6C1598 1314.5 1601.5 1305.4 1605 1300.7C1611.5 1291.9 1619.9 1288.8 1626.7 1293C1630.9 1295.5 1632.4 1298.6 1635.6 1311.5C1637.6 1319.4 1639.1 1323.2 1641.1 1325.5L1643.9 1328.7L1641.9 1334C1639 1341.7 1638.3 1353.8 1640.4 1359.5C1642.1 1364 1645.1 1367 1647.8 1367C1648.6 1367 1649 1366.4 1648.7 1365.6C1648.4 1364.8 1648.6 1361.1 1649.1 1357.4C1651.2 1342.5 1659.5 1331.4 1670.4 1328.9C1679.2 1327 1681 1328 1683.9 1336.8C1686.4 1344.1 1686.4 1344.1 1684.5 1349.3C1681.3 1358.4 1677 1367.4 1674 1371.1C1669.9 1376.2 1668.7 1382.3 1669.2 1393.8C1669.8 1406.4 1673.4 1414 1678.7 1414C1680.8 1414 1681 1413.7 1680.3 1411.7C1679.9 1410.5 1679.5 1405.2 1679.5 1400C1679.6 1391.6 1679.9 1389.9 1682.3 1385.3C1685.4 1379.3 1690.5 1373.8 1695.3 1371.4C1699.9 1369 1712.4 1368.4 1715.5 1370.4C1716.8 1371.3 1720.7 1376 1724.1 1381C1733.8 1395.3 1740.8 1399.8 1748.3 1396.6C1752.1 1395.1 1753.3 1393 1750.5 1393C1748.4 1393 1743 1390.2 1740.3 1387.7C1739.1 1386.6 1736.9 1382.6 1735.4 1378.8C1734 1375 1732 1371.4 1731 1370.8C1729.3 1369.7 1729.4 1369.1 1733 1362C1737.3 1353.5 1741.1 1348.4 1744 1347.5C1746.3 1346.8 1750.7 1348.9 1753.8 1352.3C1755.1 1353.7 1757.5 1355.4 1759.1 1356C1762 1357.2 1768.5 1356.7 1769.4 1355.1C1769.7 1354.7 1767.8 1352.9 1765.1 1351.2C1760.2 1348 1756 1343.3 1753.9 1338.7C1753 1336.6 1753.3 1335.3 1755.8 1330.2L1758.7 1324.1L1761.6 1327.1C1764.8 1330.5 1770.8 1332.4 1775.2 1331.5L1778.2 1330.8L1774.7 1327.1C1769 1321.3 1767.6 1315.3 1770.4 1308.6C1772.3 1304 1777.8 1298 1780.2 1298C1781.3 1298 1784.4 1300.3 1787.1 1303.1C1791.8 1308 1792.1 1308.1 1797.2 1307.9C1802.8 1307.7 1807.6 1309.4 1811.8 1313.4C1814 1315.3 1814.1 1316 1813.5 1322.7C1812.9 1329 1813 1330.3 1814.9 1333.3C1816 1335.2 1817 1338.3 1817 1340.2C1817 1345 1821.6 1353.7 1825.1 1355.5C1828.1 1357.1 1833.6 1357.5 1834.4 1356.2C1834.6 1355.8 1834.2 1353 1833.4 1350C1831.4 1342.7 1831.9 1328.7 1834.1 1326.4C1835.1 1325.4 1838.5 1324.5 1842.6 1324C1846.4 1323.6 1851.4 1322.5 1853.8 1321.6C1857.9 1320.1 1858.4 1320.2 1863.6 1322.3L1869.2 1324.5L1868.6 1331.3C1867.9 1339.1 1869 1344.5 1872.1 1348.5L1874.3 1351.2L1876.5 1346.8C1878.7 1342.4 1878.4 1342.5 1890.2 1339C1892.7 1338.3 1893 1338.4 1893 1340.3C1893 1342.9 1889 1351.1 1885.4 1356C1882.3 1360.2 1882.6 1362.1 1888.3 1371.4C1890.6 1375.2 1894.5 1381.8 1897 1385.9C1900.8 1392.2 1902.4 1393.9 1906.4 1395.9C1915 1400.2 1931 1399.9 1935.5 1395.3C1937.1 1393.8 1937.6 1387.5 1936.2 1386.6C1935.7 1386.3 1933.1 1387.2 1930.4 1388.6C1917.5 1395.3 1904.1 1386.3 1904 1370.9C1904 1366.4 1904.4 1365 1906.2 1363.3C1909.4 1360.3 1918.2 1358 1926.4 1357.9C1945.9 1357.8 1952.6 1355.6 1954.3 1349.1C1955.4 1344.8 1954.7 1344.3 1951.2 1346.8C1946.3 1350.3 1943.6 1350.5 1938.4 1347.6C1935.5 1346 1932.2 1345 1929.6 1345C1923.6 1345 1921 1344 1920.6 1341.6C1920.4 1340.5 1919.7 1336.8 1919.2 1333.5C1918.6 1330.2 1917.9 1326.7 1917.5 1325.8C1917.1 1324.7 1917.6 1323.5 1919.1 1322.3C1920.4 1321.3 1922.7 1319.3 1924.2 1317.8C1926.4 1315.7 1927.8 1315.2 1929.8 1315.6C1933.8 1316.4 1946.6 1313.4 1951.6 1310.5C1956.2 1307.8 1958 1305.4 1958 1302.2C1958 1300.5 1957.5 1300.6 1952.2 1303.2C1942.3 1308.1 1930.4 1306.9 1927.8 1300.8C1924.1 1291.9 1922.3 1289.5 1918 1287C1914.5 1284.9 1913.2 1283.5 1912.1 1280.2C1910.2 1274.2 1911 1273 1915.7 1274.1C1919.4 1274.9 1925.2 1274.4 1927.9 1273C1928.8 1272.5 1927.9 1271.5 1924.8 1269.7C1918.9 1266.3 1912.4 1259 1911.2 1254.6C1909.8 1249.9 1911.3 1244.9 1915 1241.2C1918.9 1237.2 1920.8 1236.9 1927.1 1239.1C1930 1240.2 1933.1 1241 1933.8 1241C1935.3 1241 1942 1234.5 1942 1233.1C1942 1232.6 1939.7 1232.5 1937 1232.8C1931.2 1233.3 1928.7 1231.8 1926.4 1226.3C1923.4 1219.2 1926 1204.1 1930.5 1202.3C1931.4 1202 1933.9 1202.7 1936 1203.9C1939.8 1206 1942.7 1206.4 1946.7 1205.4C1949.2 1204.7 1949.8 1203 1947.6 1203C1944.9 1203 1941 1198.9 1941 1196C1941 1192.5 1942.7 1190.7 1949.1 1187.4C1951.8 1186.1 1954.5 1184.1 1955.2 1183C1956.3 1181.3 1956.6 1181.5 1959.1 1185.9C1962.7 1192.1 1973.2 1201.8 1980.2 1205.3C1986.3 1208.4 1992.4 1209.6 1996.4 1208.6C1999.1 1207.9 2002 1203.5 2002 1200C2002 1198.2 2001.7 1198.1 1999.9 1199.1C1994.9 1201.7 1982.7 1196.8 1981.4 1191.6C1980 1185.8 1983 1183.3 1995.3 1179.9C2004.8 1177.2 2009.3 1174.7 2013.2 1170C2015 1167.7 2018.7 1164.8 2021.5 1163.3C2024.2 1161.9 2027.2 1159.9 2028 1158.9C2029.5 1157 2029.7 1157 2032.8 1158.5C2034.6 1159.4 2037.3 1160 2038.9 1159.8C2041.1 1159.6 2042.4 1160.2 2043.9 1162.1C2045 1163.5 2047.9 1165.7 2050.3 1167C2053.2 1168.5 2055.4 1170.6 2056.4 1172.7C2057.5 1175.1 2059.4 1176.7 2062.6 1178C2066.5 1179.7 2067 1180.3 2066 1181.5C2064.1 1183.8 2058.2 1185 2048.4 1185C2042.7 1185 2038.8 1185.5 2037.8 1186.2C2035.9 1187.8 2033 1200.4 2033 1207.2V1212.1L2038 1206.1C2045.6 1197 2050.7 1194.9 2054.9 1199.4C2058.2 1202.9 2057 1205.3 2048.7 1211.4C2044.7 1214.4 2040.7 1217.6 2039.8 1218.6C2038.1 1220.6 2032 1235.1 2032 1237.4C2032 1239.2 2028 1242.7 2023.8 1244.5C2021.7 1245.3 2016 1246.4 2011.1 1246.9C2005.1 1247.6 2000.6 1248.7 1997.4 1250.3C1994.7 1251.6 1990.4 1253 1987.8 1253.4C1981.4 1254.3 1979 1256.6 1973.1 1266.8C1966.8 1277.6 1966.3 1282.4 1971 1288.8C1974.2 1293.3 1975.5 1294.1 1974.6 1291.2C1974.3 1290.3 1974 1286.6 1973.9 1283.1C1973.7 1276.7 1973.7 1276.6 1978.1 1272.8C1986.5 1265.4 1989.8 1263.6 1994.8 1263.7C1997.4 1263.8 2001.6 1264.7 2004.2 1265.9C2008.9 1267.9 2008.9 1267.9 2007.8 1271C2005 1279.1 2009.6 1287.3 2018 1289.3C2020.5 1289.9 2020.5 1289.8 2020.1 1284.8C2019.8 1279.5 2021.4 1272 2023 1272C2025.1 1272 2030 1277.4 2031.5 1281.5C2033.5 1286.7 2033 1290.9 2029.4 1298.9C2025.1 1308.5 2026.6 1325.3 2033 1338.1C2034.6 1341.1 2036.5 1344.2 2037.4 1344.9C2040 1347.1 2044.2 1345.8 2046.8 1342L2049.1 1338.5L2045.9 1337.8C2035.6 1335.7 2033.7 1313.1 2042.7 1301.1C2048.3 1293.8 2061.2 1291.7 2066.5 1297.4C2068.3 1299.3 2069.9 1300 2072.8 1300C2077.7 1300 2078.3 1299.4 2076.5 1295.9C2074.5 1292.1 2074.6 1289.1 2077 1285.2C2080.7 1279.1 2091.6 1276.2 2098 1279.5C2101.4 1281.3 2105 1286.8 2105 1290.3C2105 1291.7 2103.9 1295.2 2102.6 1298C2100 1303.6 2100.3 1306.4 2103.8 1310.3C2107.6 1314.6 2108.5 1314.2 2108.6 1308.1C2108.6 1303.4 2109.4 1301 2113.4 1293.3C2116.9 1286.5 2118.8 1283.9 2121 1283C2124.4 1281.6 2126.6 1279.3 2127.2 1276.5C2127.5 1275.3 2128 1276.6 2128.5 1279.5C2129.4 1285.6 2131.5 1291 2132.9 1291C2134 1291 2134.4 1289.8 2135.9 1280.7C2137.8 1270.1 2141.3 1265.5 2148.4 1264.3C2153.1 1263.6 2157.7 1268 2165.2 1280.6C2173.1 1293.8 2176.3 1297.8 2180.3 1298.8C2183.4 1299.6 2183.5 1299.8 2184.1 1306.6C2184.8 1313.8 2186.7 1318.8 2190.3 1322.7C2193.5 1326.2 2194.5 1325.5 2194.6 1319.6C2194.8 1312.6 2197.5 1304.6 2201.2 1300.4C2204.5 1296.7 2208.6 1295.8 2209.7 1298.7C2210 1299.6 2209.3 1304.9 2208.1 1310.4C2205.1 1323.6 2204.5 1330.8 2205.9 1335.3C2207.3 1339.4 2212.2 1344 2215.2 1344C2217 1344 2217.1 1343.6 2216.5 1339.1C2215.6 1332.6 2217.7 1327.6 2222.3 1325.4C2225.5 1323.9 2225.9 1323.9 2229.8 1325.9C2232.1 1327.1 2234.9 1328 2236.1 1328C2238.2 1328 2238.2 1328.3 2237.8 1335.9C2237.2 1346.4 2234.2 1352.3 2227.6 1356.5C2223.3 1359.1 2221.9 1359.4 2215.6 1359.3C2207.2 1359.1 2195.2 1356.2 2188 1352.5C2185.1 1351 2178.5 1347 2173.4 1343.5C2168.3 1340 2162.6 1336.8 2160.7 1336.5C2156 1335.6 2135.7 1337.7 2131.1 1339.6C2128.9 1340.4 2125.3 1343.4 2122.7 1346.5C2118.5 1351.3 2117.4 1352 2112.3 1353C2100.9 1355.3 2088 1363.3 2084.4 1370.2C2082.5 1373.9 2083.2 1379 2085.9 1381.4C2087.7 1383.1 2087.8 1383 2088.5 1380.1C2088.8 1378.4 2090.6 1375.9 2092.3 1374.4C2094.8 1372.3 2096.1 1371.9 2098.9 1372.4C2105.9 1373.5 2118.4 1389.8 2117.8 1397C2117.4 1402.2 2111.3 1404.9 2097.8 1406C2092.1 1406.5 2084.2 1407.6 2080.2 1408.4C2070.2 1410.6 2068.5 1410.4 2066.6 1407.5C2061.2 1399.2 2046.3 1399.9 2027.5 1409.3C2016.7 1414.7 2012 1419.8 2012 1426.2C2012.1 1431.7 2013.6 1431.6 2019.9 1425.8C2023.2 1422.7 2028 1419.4 2030.5 1418.4C2034.8 1416.8 2035.3 1416.8 2038.6 1418.3C2042.6 1420.3 2043 1422.8 2039.9 1427.1C2037.2 1431 2038.1 1433.5 2043.8 1437.1L2048.4 1440L2049.6 1434.4C2050.3 1430.5 2051.4 1428.2 2053.1 1426.9C2054.4 1425.9 2055.7 1425 2056 1425C2057.3 1425 2064 1431.3 2064 1432.6C2064 1433.4 2063.1 1436.8 2062 1440.1C2058.7 1449.7 2061.3 1454.5 2070.5 1456.3L2073.5 1456.9L2073.2 1449.9C2072.8 1443.1 2072.9 1442.9 2076.3 1439.5C2080.6 1435.2 2083.6 1435 2085.1 1438.7C2086.8 1443.2 2085.5 1448.5 2081.4 1454.1C2076.7 1460.5 2073.3 1462 2063.1 1462H2055.2L2048.6 1468.4C2041.6 1475.2 2040.7 1477.5 2043 1483.6L2044.1 1486.3L2045.7 1483.9C2046.6 1482.6 2049.1 1479.6 2051.4 1477.2C2060.7 1467.3 2071.6 1465.6 2078.9 1472.9C2082.2 1476.2 2081.5 1478.9 2076.4 1483.7C2071.3 1488.3 2071.3 1488.2 2074 1501C2074.7 1504 2075.4 1507.5 2075.6 1508.7C2076.2 1511.8 2079.6 1513.9 2085.4 1514.6L2090.1 1515.3L2086.9 1510.1C2082.5 1503.1 2081.9 1495.9 2085.2 1491.1C2087.1 1488.3 2097.8 1481.1 2100.1 1481C2100.5 1481 2101 1482.1 2101.4 1483.3C2102.1 1486.4 2105.8 1491 2107.5 1491C2108.2 1491 2110.2 1489.9 2111.8 1488.5C2118.7 1482.7 2120 1486.3 2117 1503.7C2110.4 1543.7 2113.9 1561 2128.7 1561C2133 1561 2133.3 1560 2130.3 1555.5C2125.4 1548.2 2123.9 1539.4 2126.1 1530.5L2127.2 1526.1L2131 1529.1C2133 1530.7 2135.6 1532.2 2136.6 1532.2C2140.1 1532.5 2143.9 1531 2145 1529C2145.9 1527.4 2145.7 1527 2143.6 1526.4C2140.8 1525.7 2137.5 1522.4 2136.6 1519.4C2136.1 1517.9 2136.7 1516.3 2138.6 1514.1C2142.3 1509.6 2150.1 1507.6 2160.4 1508.3C2169.6 1508.9 2168.4 1508 2176.3 1521.2C2184.3 1534.7 2191.1 1541 2197.7 1541C2199.5 1541 2201 1540.8 2201 1540.5C2201 1540.3 2199.7 1538 2198 1535.4C2194.2 1529.4 2189.3 1517.5 2188.4 1512.4C2187.8 1508.6 2188 1508.4 2191.5 1506.7C2193.5 1505.8 2195.9 1503.6 2196.8 1502C2198.4 1499.3 2198.9 1499 2204 1499C2213.8 1499 2225.8 1503.2 2232.3 1509C2243.6 1518.9 2245 1534.3 2236.6 1555.1C2230.8 1569.6 2213.5 1594.3 2204.5 1601.2C2197.8 1606.4 2170.9 1619.7 2158.2 1624.3C2133.2 1633.3 2116.9 1635.7 2093.6 1634.1C2065.5 1632.2 2049.3 1629.1 2003 1617C1966.5 1607.4 1955.4 1605.6 1937 1606.3C1928.1 1606.7 1915.4 1608.1 1904 1609.9C1893.8 1611.6 1883 1613 1880 1613C1871 1613 1862.4 1610.3 1845.9 1602.5C1837.3 1598.4 1822.9 1592.3 1813.9 1589C1795 1582 1777.2 1573.6 1771.7 1569C1769.6 1567.2 1765.7 1562.5 1763 1558.5C1752.1 1542.4 1738.1 1534.7 1708 1528.4C1687.9 1524.2 1674.6 1518 1654.6 1503.1C1641 1493.1 1631.3 1484.3 1608 1461.5C1596.7 1450.4 1582.5 1437.6 1576.5 1432.9C1562.1 1421.9 1550.3 1410.5 1546.2 1403.7C1544.4 1400.7 1541.6 1394.8 1540.1 1390.8C1536.6 1381.3 1531.9 1374.2 1523.3 1365.6C1508.6 1350.8 1491.8 1342.7 1480.7 1345.2C1474.9 1346.5 1467.9 1351.1 1458.9 1359.6C1451.2 1366.9 1447.8 1369.2 1442.5 1370.4C1440.8 1370.8 1433.4 1373.5 1426 1376.5C1410.8 1382.5 1404.1 1384 1392.9 1384C1375.5 1384 1363.7 1389.3 1356.7 1400.4C1338.5 1429.2 1326.6 1444.4 1307.5 1463.5C1270.9 1500.2 1232.3 1522.8 1185.5 1535C1173.4 1538.1 1155.2 1541.5 1154.4 1540.8C1154.2 1540.5 1168 1529.3 1185.2 1515.9C1234.1 1477.8 1243 1469.8 1253 1455.4C1259.4 1446.2 1262.9 1438.5 1269.2 1420C1274.8 1403.6 1277.7 1398.4 1294.3 1375.7C1311.4 1352.2 1320.4 1337.9 1329.1 1320.5C1345.5 1287.3 1356.1 1245 1357.7 1206C1358.2 1192.3 1358 1190.2 1354.2 1167C1351.9 1153.5 1349.4 1136.2 1348.5 1128.5C1345.8 1104.3 1342.1 1091.1 1333 1073C1322.9 1052.8 1309.1 1035.5 1294.4 1024.5C1286.7 1018.7 1271.9 1010.5 1270.1 1011.2C1269.1 1011.5 1272.7 1018.3 1277.5 1024.9C1280.4 1028.8 1280.4 1029 1278.7 1031.4C1277 1033.7 1266.2 1034.7 1260.2 1033C1252.1 1030.9 1244.4 1021.6 1241 1010.3C1239.9 1006.6 1239.2 1005.9 1236.2 1005.4C1226.4 1003.5 1209.4 1008.1 1204.9 1013.8C1203 1016.3 1202.3 1023.4 1203.8 1025.6C1205.3 1027.9 1208.9 1028.9 1215.6 1029.1C1224.3 1029.3 1225.7 1029.7 1227.1 1032.1C1228.7 1035.2 1224.1 1041.6 1218.3 1044.2C1214.1 1046 1212.5 1046.2 1201.1 1045.5C1189.6 1044.9 1188.3 1045 1186.9 1046.7C1182.8 1051.4 1181.7 1062.2 1184.9 1067.4C1187.2 1071 1190.7 1073.8 1197 1077C1199.5 1078.2 1202.3 1079.9 1203.2 1080.8C1209.6 1086.4 1197.3 1093 1186.2 1089.9C1183.6 1089.2 1176.7 1085.4 1170.9 1081.4C1165 1077.4 1158.8 1073.5 1157.2 1072.6C1150 1068.9 1143.1 1072.3 1142.9 1079.7C1142.7 1087.1 1143.2 1091.9 1144.5 1097.6C1146 1104.3 1145.2 1107 1141.5 1107C1137.7 1107 1134.4 1105.4 1129.9 1101.3C1119.6 1092 1117.7 1075.6 1125.1 1058.9C1132 1043 1129.3 1035.4 1116.3 1034.4C1109.5 1033.8 1106.5 1035.1 1103.3 1039.9C1100.5 1044 1100.2 1053.3 1102.6 1059.5C1106.7 1069.8 1105.4 1072.2 1096.1 1072.1C1085.3 1072.1 1079.9 1067.8 1076.3 1056.6L1074.4 1050.8L1069.2 1056.4C1059.7 1066.9 1060.2 1074.3 1070.8 1079.7C1075.7 1082.2 1076.5 1083 1076.5 1085.5C1076.5 1087.8 1075.7 1088.7 1072.5 1090.4C1066.8 1093.3 1059.5 1093 1048.8 1089.3L1040 1086.3L1039.3 1089.9C1038.8 1091.9 1038.5 1097.3 1038.5 1102C1038.5 1113.3 1040.7 1117.3 1051.5 1125.5C1061 1132.7 1061.6 1134.6 1056.7 1139.5C1051.2 1145 1046.8 1144.3 1032.5 1135.2C1029.7 1133.5 1026.4 1131.8 1025 1131.5C1021.5 1130.7 1017.3 1134.1 1016.4 1138.4C1015.5 1143.3 1018.8 1150.3 1022.8 1151.9C1028.3 1154.2 1027.5 1158.9 1021.2 1161.6C1005.1 1168.3 995.9 1163.3 990.5 1144.7L988.9 1139H981.9C972.5 1139 969.7 1141.4 966.5 1152.5C965.3 1156.9 963.5 1160.9 962.7 1161.4C960.3 1162.9 956.5 1160.6 953.3 1155.9C950.9 1152.2 950.5 1150.7 950.5 1144.1C950.5 1138.1 951 1135.5 952.9 1131.7C955.8 1125.7 963.4 1118 969 1115.2L973.3 1113.1L967.9 1110.7C957.8 1106.2 953.6 1100.8 951.1 1089.1C949.6 1081.9 948.7 1081 943.1 1081C937.5 1081 932.7 1083.7 930.5 1088C929.1 1090.7 929 1091.8 930.1 1096.1C931.2 1100.4 931.2 1101.2 929.8 1102.6C925.8 1106.6 914.5 1099.9 912.2 1092.2C910.6 1087 910.7 1083.4 912.5 1077.4C914.1 1071.8 917.8 1067.9 926 1063.1C929 1061.3 933.5 1057.9 936 1055.5C940.6 1051.1 943.3 1050 953.5 1048C961.8 1046.3 962 1046 959.8 1039.5C957.4 1032.4 956.5 1021 957.8 1014L958.8 1008.6L954.6 1003.9C952.3 1001.3 949.1 996.3 947.4 992.7C944.9 987 944.1 986.1 941.3 985.5C939.5 985.2 936.6 983.7 934.8 982.2C932 979.8 930.8 979.5 924.9 979.6C913.2 979.7 906.4 985.7 900.7 1001C899.3 1004.5 897.3 1008 896.2 1008.8C894.5 1009.9 893.9 1009.7 891 1007.3C886.1 1003.2 884 997.8 884 988.8C884 976.9 885.4 974.4 897.9 964.4C903.7 959.7 910.6 954.6 913.2 953.1C915.8 951.7 918 949.8 918 949C918 948.2 919.7 944.6 921.8 941C923.8 937.4 926.3 932.6 927.4 930.4C928.4 928.1 930.3 925.7 931.6 925.1C933 924.5 938.7 924 944.3 924C949.9 924 956.5 923.5 958.9 922.9C965 921.5 972.3 923.2 979.6 927.6C985.4 931.1 985.7 931.2 994.1 930.8C1004.3 930.3 1011.1 927.4 1014.7 922C1018.7 916.1 1016.8 908 1011.4 908C1007.5 908 1005 911.3 1005 916.4C1005 922.3 1004.2 924 1001.5 924C992.3 924 984.1 914.2 984 903.4C984 896.9 982.4 892.3 979.9 891.5C974.2 889.7 964 898 964 904.5C964 906.9 963.4 908.2 962 909C959.2 910.5 956.9 909 953.2 903.4C947.1 894.3 948.2 885.7 956.1 878.5C960.8 874.3 965.1 872.1 979.8 866.3C993.1 861.1 1003.1 859.8 1011 862.3L1015.5 863.7L1019.7 859.9C1022.4 857.4 1025.8 855.6 1029.7 854.5C1032.9 853.6 1041.5 851.1 1048.8 848.8C1065.2 843.8 1068 843.9 1089.5 850.5C1108.1 856.2 1112.4 856.3 1122.7 850.6C1126.4 848.6 1132.1 845.7 1135.3 844.2C1140.1 842 1141 841.2 1140.5 839.5C1140.2 838.4 1139.3 831.9 1138.5 825C1137.8 818.1 1136.7 811.3 1136.1 809.9C1134.7 806.1 1131.2 804 1126.4 804C1119.2 804 1114.4 809.7 1112 821.3C1109.2 835.1 1100.5 828.6 1099.2 811.7C1098.2 798.5 1104.7 789.8 1122.8 780C1132.3 775 1133 774.3 1133 771.5C1133.1 766.5 1136.4 760.9 1143.4 754.1C1150.3 747.2 1150.7 745 1145.1 745C1141.3 745 1136.8 748.7 1130.4 756.9C1127.3 760.8 1124.3 764 1123.6 764C1120.6 764 1118.9 761.2 1117.3 753.5C1114.6 740.6 1117.1 734.5 1127.1 729.4C1130.5 727.7 1132.9 725.5 1135.3 721.7C1141.9 711.6 1146.6 709.1 1165 706C1185 702.7 1196.4 695.5 1205.1 680.9C1212 669.3 1215.8 666.7 1230.1 663.5C1236 662.2 1239 660.9 1243.5 657.6C1254 649.7 1272.8 643.7 1293.3 641.7L1305.2 640.6L1307.2 636.5C1309.8 631.3 1315.5 625.3 1320.2 622.9C1324.9 620.5 1334.2 618.4 1344 617.5C1351.7 616.8 1357 614.8 1362.9 610.5C1364.7 609.1 1367.9 607.5 1369.9 606.9C1373.4 605.7 1399.2 605 1412 605.6ZM976 1091.8C976 1092.2 976.9 1095.7 978 1099.5C979.1 1103.3 980 1107.5 980 1108.7C980 1112 985.6 1111.3 989.3 1107.5C991.6 1105.3 991.5 1097.9 989.2 1095C987 1092.3 976 1089.5 976 1091.8Z" fill="black"/>
<path d="M799.6 1488.2C806.7 1497.4 833 1523.4 844.3 1532.4C885.8 1565.4 932.8 1589.4 983.8 1603.4C1007.7 1610 1038.8 1615 1056.2 1615C1060.4 1615 1064.1 1615.4 1064.5 1616C1065.4 1617.4 1055.3 1624.9 1047.5 1628.6C1038.3 1633 1025.6 1636.5 1008.5 1639.6C976.2 1645.3 968.5 1647.1 961 1650.5C955.4 1653.1 949.3 1654.7 937 1656.9C826.6 1676.7 722.3 1674.1 621.5 1648.9C597.2 1642.8 552.2 1629.4 553.1 1628.6C553.3 1628.4 558.2 1626.5 564 1624.5C637.3 1598.3 699.1 1557.7 756 1498.2L771.5 1482H783.1H794.7L799.6 1488.2Z" fill="black"/>
<path d="M1060.1 1687.7C1053.9 1690.3 1047.7 1695.2 1037.2 1705.4C1024.2 1718 1006.2 1738.6 994.7 1753.7C994 1754.7 994.5 1754.7 997.1 1753.8C1001 1752.4 1013.4 1744.2 1032.5 1730.1C1040.2 1724.5 1048.2 1718.9 1050.4 1717.8C1057.8 1714 1057.3 1717.1 1047.1 1738C1041 1750.6 1039.8 1755.7 1042.4 1757.9C1044 1759.3 1047.8 1758.6 1053.3 1755.8C1059.8 1752.6 1071.7 1740.3 1088 1720C1096.6 1709.2 1105.8 1698.6 1108.4 1696.3C1122 1684.3 1139.2 1687.9 1141.4 1703.2C1142.4 1709.9 1135.9 1746.2 1131.5 1759C1127.1 1771.8 1117.9 1791.1 1107.9 1808.5C1098.9 1824.1 1097 1828.7 1097 1834.4C1097 1837.8 1097.6 1839.4 1099.8 1841.8C1103.9 1846.2 1109.4 1847.4 1122.5 1846.7C1145.6 1845.4 1178.6 1833.5 1201.6 1818.2C1212.8 1810.7 1217.6 1805.6 1222.8 1795.4C1232.7 1776.5 1245 1767.7 1259.1 1769.3C1266.7 1770.2 1272.5 1773.4 1279.8 1780.4C1283.6 1784 1287 1786.6 1287.6 1786.2C1290 1784.7 1301 1771.6 1313.9 1755C1330.2 1734.1 1341.4 1722 1347.1 1719.5C1350.8 1717.8 1351.5 1717.7 1353.9 1719.1C1360.5 1722.8 1363.6 1736.1 1361.1 1750.6C1355.9 1780.6 1328.7 1831.9 1296.4 1872.6C1278 1895.8 1266.5 1906.6 1252.5 1913.9C1248.1 1916.2 1238.6 1922.4 1231.5 1927.6C1187.4 1960.3 1151.2 1977.3 1088 1995.1C1067.5 2000.9 1041.6 2006.3 1024 2008.4C949.6 2017.5 858.7 2009.5 747 1983.9C621 1955 534.3 1926.5 441 1883C404.4 1866 327.2 1824.8 343.1 1830.8C350.7 1833.7 366.6 1835.3 382.4 1834.7C410.6 1833.7 433.3 1828.9 481.5 1813.8C490.3 1811.1 502.2 1807.9 508 1806.8C513.8 1805.7 531.1 1801.7 546.5 1797.9C590.4 1787 607.6 1784 609.5 1787C610.5 1788.6 607.1 1795.3 603.2 1799.3C593.3 1809.5 571.9 1818.4 524.5 1832C489.4 1842.1 471.7 1848.6 457.1 1856.7C450.7 1860.3 443 1866.5 443 1868.1C443 1869.9 448.5 1868.9 461.3 1864.5C468.6 1862.1 486.4 1856.9 501 1853C614.7 1822.4 631.2 1817.4 673 1801C704.8 1788.6 723.4 1783 733.2 1783C737.2 1783 741 1785.4 741 1787.9C741 1793 728.3 1806.5 715.6 1814.8C703.5 1822.7 677.7 1834.3 632 1852.5C607.5 1862.2 582.9 1872.4 577.3 1875.2C567.4 1880 561 1884.6 561 1887C561 1887.6 562.7 1888.8 564.7 1889.8C570 1892.1 595.9 1892 609 1889.6C649 1882.3 688.6 1867.2 769.4 1828.5C789.4 1819 810.3 1809.5 815.8 1807.6C832.4 1801.9 840.8 1797.1 880.7 1770.8C894 1762.1 908.6 1753.2 913.2 1751.1C917.8 1749 928 1743.5 936 1739C951.5 1730.1 974.1 1718.8 974.8 1719.5C975.6 1720.3 963.8 1734.2 952 1746.4C938.5 1760.4 911.2 1785.6 886.5 1807.2C867.2 1823.9 866.6 1825.2 880.4 1820.6C899.4 1814.2 935 1793.4 963.7 1771.8C971.2 1766.2 975.9 1761.3 989.8 1744.7C1026 1701.4 1044.2 1685.9 1058.5 1686.1L1063.5 1686.2L1060.1 1687.7Z" fill="black"/>
<path d="M1932.9 1745.1C1944.3 1752.7 1950.7 1762.8 1947.8 1768.7C1946 1772.4 1940.4 1776 1936.4 1776C1931.9 1776 1930.6 1778.6 1931.5 1785.6C1932.4 1792.7 1937.3 1802.4 1943 1808.1C1947 1812.1 1952.4 1814.9 1953.6 1813.7C1953.8 1813.5 1953.3 1811.4 1952.5 1809C1949.1 1799.4 1952.1 1794 1960.8 1794C1968.3 1794 1970.2 1796.9 1972 1811.7C1974.8 1833.9 1980.2 1839.7 1997.2 1839.1L2000 1839L1996.5 1834.4C1990.2 1826.2 1992.3 1817.8 2002.3 1811.6C2009.4 1807.2 2014.9 1807.4 2022.7 1812.2C2028.8 1816 2036 1817.4 2037.5 1815C2037.8 1814.5 2037.3 1811.8 2036.3 1809.1C2034.7 1804.5 2034.7 1803.9 2036.2 1800.7C2038.1 1796.8 2045.7 1791.3 2050.7 1790.4C2053.5 1789.9 2055.6 1790.5 2061.6 1793.5C2069.9 1797.7 2073.8 1798.1 2077.6 1795.1C2080.7 1792.6 2082.8 1792.5 2087.4 1794.4C2094.4 1797.3 2092.9 1802.2 2081.4 1815.1C2064.5 1833.9 2062.8 1840.8 2073.7 1846.3C2080.1 1849.6 2080.5 1849.4 2080.6 1844C2080.8 1834.5 2088.2 1827.7 2099.9 1826.3C2104.4 1825.8 2105.4 1826 2107.6 1828.1C2109.1 1829.4 2112.8 1836 2116.1 1842.6C2123.7 1858.6 2127.7 1861.6 2135.1 1857.3C2137.7 1855.7 2137.9 1855.3 2137.2 1851.5C2136.8 1849.3 2136.5 1843.2 2136.5 1838C2136.5 1830 2136.9 1827.7 2138.9 1823.7C2149.9 1801.3 2187.7 1810.2 2220 1842.8C2239.9 1863 2250.9 1883.2 2256.7 1910.3C2259.2 1921.7 2259.1 1946.4 2256.7 1958C2251.1 1984.5 2238.3 2010.2 2218.5 2034.7L2211.9 2043H1904.9H1597.9L1599.7 2039.9C1602.5 2035.2 1605.9 2032.4 1607.4 2033.5C1613.2 2037.8 1614.6 2038.4 1618.9 2038.4C1621.4 2038.4 1624.6 2037.7 1626 2036.9L1628.5 2035.5L1625.4 2035.2C1620.7 2034.7 1618.7 2031.9 1618.2 2025.1C1617.5 2015.8 1621.1 2010.7 1637.3 1998C1643.8 1992.9 1646.1 1992.1 1650.8 1993.1C1659.7 1995 1661.7 1999 1659.4 2010.2C1657.1 2021.5 1657.8 2032 1660.9 2035.4C1662.9 2037.5 1664.3 2038 1668.5 2038C1671.3 2038 1674 2037.7 1674.3 2037.4C1674.7 2037 1674 2035.5 1672.9 2033.9C1669 2028.5 1668.6 2025.4 1670.5 2018.7C1671.5 2015.3 1672.7 2012 1673.2 2011.4C1675.6 2008.1 1687.1 2009.5 1692.1 2013.7C1696 2017 1697.6 2020.3 1698.3 2026.7C1698.6 2029.6 1699.6 2033.3 1700.5 2035C1703.9 2041.5 1712.5 2043.8 1721 2040.4L1725 2038.8L1720.6 2034.9C1710.5 2026 1712.3 2016.7 1725.4 2011C1730.4 2008.7 1733.7 2008.5 1750.1 2009C1758.5 2009.3 1760.3 2009 1764.5 2007C1769.1 2004.8 1773 2000.2 1773 1996.9C1773 1995.4 1772.5 1995.4 1766.9 1997.1C1759.2 1999.5 1750.6 1999.6 1746 1997.2C1741.2 1994.9 1738.5 1989.4 1736.2 1977.5C1735.1 1972 1733.9 1966.5 1733.5 1965.2C1732.8 1963.1 1733 1963 1738.6 1963C1749.5 1963 1753.9 1957.8 1750.4 1948.9C1747.6 1941.9 1746 1940 1740.1 1937C1732.7 1933.3 1730.8 1931 1730.2 1925.2C1729.8 1920.8 1730.1 1920 1732.9 1916.7C1736.9 1912.2 1745.2 1908 1750.3 1908C1753.6 1908 1754.8 1908.7 1758.4 1912.3C1763.6 1917.7 1770.8 1921.2 1777.8 1921.8C1784.6 1922.4 1784.4 1921.1 1777 1916.7C1769.7 1912.3 1768.7 1910.1 1770 1901.3C1772 1887.4 1775.8 1879 1780.3 1879C1781.5 1879 1784 1879.9 1785.9 1881.1C1788.3 1882.5 1790.5 1883 1793.8 1882.8C1798.4 1882.5 1798.5 1882.4 1799.1 1878.6C1799.9 1873.8 1803.2 1870.9 1811 1867.9C1822.1 1863.7 1831 1864.5 1837.5 1870.1C1842.6 1874.7 1843.5 1879.1 1840.9 1887.6C1838.2 1896.4 1838.5 1907.5 1841.6 1911.7C1843.9 1914.9 1851.3 1919 1854.7 1919H1856.9L1855 1914.7C1853.9 1912.3 1852.8 1908.6 1852.4 1906.3C1851.2 1898.4 1857.6 1889 1867.7 1884.3C1874.6 1881.1 1878.3 1880.8 1878.8 1883.5C1880 1890.6 1883.8 1894 1890.6 1894C1893.6 1894 1894 1893.8 1893.1 1892.6C1892.3 1891.6 1892.2 1890.1 1892.8 1887.9C1893.5 1885.1 1894.2 1884.4 1897.6 1883.7C1902.8 1882.6 1912.9 1883.4 1916.5 1885.3C1920.9 1887.5 1924.8 1891.5 1925.6 1894.4C1926.6 1898.3 1925.4 1901.3 1920.8 1907C1911.9 1917.8 1910 1921 1910 1925.1C1910 1930.1 1914.7 1935.5 1922.9 1939.9L1928.9 1943.1L1926.5 1938.8C1922.9 1932.3 1922.5 1928 1924.8 1922.8C1925.9 1920.3 1928.1 1917.4 1929.7 1916.2C1934.7 1912.7 1937.5 1912.5 1944 1915.4C1956.9 1921.2 1978.3 1924.1 1984.3 1920.8C1986.3 1919.8 1985.6 1919.5 1978.7 1918.4C1974.4 1917.7 1969.8 1916.4 1968.4 1915.5C1965.1 1913.4 1962.3 1908.6 1961.5 1903.9C1960.7 1899.4 1963.1 1890.4 1965.8 1886.9C1967.6 1884.8 1968.3 1884.7 1978.1 1884.9C1987.2 1885.1 1989 1884.8 1992.9 1882.8C1997.3 1880.5 2000 1877.7 1998.8 1876.5C1998.5 1876.2 1996.1 1876.4 1993.4 1877C1981.7 1879.6 1975.2 1874.8 1972 1861.2C1970.9 1856.4 1970.5 1855.9 1968.6 1856.5C1953.9 1860.8 1950.9 1861.3 1941 1861.3C1929.3 1861.4 1922.7 1859.5 1915.1 1854C1902.4 1844.8 1895.2 1826.3 1896.3 1805.5C1897.1 1789.8 1901.5 1778.3 1908.5 1773.5L1911.5 1771.5L1909.6 1767.6C1907.9 1764.1 1907.8 1763 1908.8 1758.1C1910.8 1748.6 1917.6 1741 1924.1 1741C1925.6 1741 1929.5 1742.8 1932.9 1745.1Z" fill="black"/>
<path d="M600 1753C600 1755.5 571.5 1770.9 552.9 1778.6C502.8 1799.1 417.7 1816.8 337 1823.5L329.5 1824.1L317 1814.3L304.5 1804.5L323.5 1803.8C398.9 1801.1 475.5 1788.1 560.5 1763.4C596.5 1753 600 1752.1 600 1753Z" fill="black"/>
<path d="M429 1766.8C435.8 1768.3 437 1770.9 432 1773.5C417 1781.2 328.7 1791.5 293.2 1789.7L282 1789.1L272 1781.9C266.5 1778 261.8 1774.5 261.6 1774.2C261.4 1773.8 269.6 1773.4 279.8 1773.3C290.1 1773.2 317.4 1771.7 340.5 1770C383 1766.9 422.6 1765.5 429 1766.8Z" fill="black"/>
<path d="M1526.6 1844.5C1531.3 1846.6 1536.7 1853.2 1538.4 1859.1C1540.6 1866.2 1540.4 1872.5 1537.9 1880.6C1535.9 1887.1 1535.2 1888.1 1525.1 1897.7C1519.3 1903.4 1512.9 1908.7 1511 1909.7C1509.1 1910.6 1503.7 1911.7 1498.9 1912.1C1486.8 1913.2 1481 1915.7 1470 1924.6C1458.4 1933.8 1456.9 1934.6 1448.9 1935.9C1433.2 1938.5 1418.8 1957 1415.5 1979L1414.8 1983.5L1419.2 1978.9C1425 1972.9 1432.2 1968 1437.7 1966.4C1446 1963.9 1451.9 1968.5 1448.5 1975C1445.2 1981.5 1428.4 1990.6 1414.2 1993.6C1406.3 1995.3 1405.6 1995.3 1398.5 1993.6C1386.5 1990.8 1383.1 1992.2 1368 2006.4C1352.2 2021.2 1346 2024.5 1328.2 2027.5C1323 2028.3 1317.6 2029.7 1316.1 2030.5C1312.8 2032.2 1307.4 2038 1306.5 2040.9C1305.9 2043 1305.6 2043 1246.8 2043H1187.7L1188.3 2039.2C1189.1 2034.6 1193 2030.9 1208.3 2020.6C1220.3 2012.6 1230.3 2007.5 1232.4 2008.3C1233.1 2008.6 1234.7 2010.9 1236 2013.4C1238.4 2018.5 1242.2 2021.7 1246.9 2022.6C1256 2024.4 1263.4 2016.8 1270.9 1997.8C1273.9 1990.4 1279 1984.6 1284.4 1982.5C1290.6 1980.1 1296.1 1981.8 1301.7 1987.6L1306 1992L1308.3 1988.3C1314.9 1977.7 1324.3 1957.9 1329.4 1943.8C1331.8 1937.2 1341.9 1923.3 1352 1912.6C1364.9 1899.1 1372.2 1895.3 1376.5 1900C1379.3 1903.1 1378 1909 1371.4 1923C1366.4 1933.5 1365.5 1936.4 1365.5 1941C1365.5 1949.7 1370.6 1958.8 1373.2 1954.8C1373.6 1954.1 1374.9 1950.3 1376.1 1946.5C1378.8 1937.5 1382.3 1931.4 1386 1929.5C1389.8 1927.5 1391.3 1927.6 1393.3 1929.8C1395.6 1932.4 1395.4 1937 1392.5 1947.5C1388.3 1962.8 1385.4 1967.5 1372.1 1980.2C1358.9 1992.9 1355.7 1996.8 1353.6 2002.8C1352.2 2006.7 1352.2 2007 1353.8 2007C1356.4 2007 1363.8 2002 1368.9 1996.9C1372.7 1993.1 1377.9 1986.5 1384.2 1977.6C1385.2 1976.3 1388.4 1974 1391.4 1972.7C1396.9 1970.2 1396.9 1970.2 1399 1962.8C1407.9 1932.4 1415.7 1908.3 1417.7 1905.5C1418.4 1904.4 1421.4 1902.4 1424.3 1901C1428.6 1898.9 1429.7 1897.8 1430.8 1894.5C1433.2 1887.3 1435.3 1884 1438.7 1881.9C1445.6 1877.6 1446.6 1881.3 1442 1893.1C1440.4 1897.4 1438.7 1903.3 1438.4 1906.3C1437.8 1911.7 1437.9 1912 1441.1 1915.2L1444.5 1918.5L1445.1 1913.5C1445.8 1906.5 1449 1896.9 1451.4 1894.2C1452.5 1893 1457 1889.8 1461.4 1887.2C1465.8 1884.6 1470.8 1881.7 1472.4 1880.7C1474.7 1879.3 1477 1879 1481.4 1879.3C1486.6 1879.6 1487.6 1880 1489.9 1882.8C1498.2 1893 1497.3 1892.3 1500.2 1890.9C1503.8 1889.3 1506.3 1883.8 1505.7 1879.1C1505.4 1877.1 1504.2 1872.8 1503 1869.5C1500.3 1862.2 1500.8 1856.4 1504.5 1850.8C1509.1 1843.9 1518.9 1841.1 1526.6 1844.5Z" fill="black"/>
</svg>
