<?xml version="1.0" standalone="no"?>
<!DOCTYPE svg PUBLIC "-//W3C//DTD SVG 20010904//EN"
 "http://www.w3.org/TR/2001/REC-SVG-20010904/DTD/svg10.dtd">
<svg version="1.0" xmlns="http://www.w3.org/2000/svg"
 viewBox="0 0 2600.000000 2600.000000"
 preserveAspectRatio="xMidYMid meet">
<metadata>
Created by potrace 1.15, written by Peter Selinger 2001-2017
</metadata>
<g transform="translate(0.000000,2600.000000) scale(0.100000,-0.100000)"
fill="#000000" stroke="none">
<path d="M11880 19944 c-360 -19 -419 -29 -560 -94 -99 -46 -164 -55 -455 -65
-276 -9 -360 -24 -630 -112 -178 -58 -680 -245 -748 -279 -29 -15 -128 -79
-222 -142 -474 -323 -592 -394 -737 -441 -191 -63 -537 -327 -1192 -909 -114
-101 -203 -171 -273 -213 -195 -119 -348 -221 -434 -290 -117 -93 -280 -265
-359 -378 -145 -209 -179 -254 -265 -358 -340 -408 -918 -878 -1535 -1247
-160 -96 -373 -207 -435 -226 -52 -16 -127 -54 -300 -150 -150 -84 -279 -144
-388 -179 -73 -25 -95 -47 -77 -81 14 -26 41 -25 126 4 108 37 227 93 373 173
170 94 256 137 306 153 116 36 448 224 730 413 669 447 1183 922 1484 1371
124 185 249 320 422 458 50 40 230 158 394 258 78 48 169 121 348 278 579 512
913 769 1077 829 192 70 328 147 642 365 322 223 351 239 578 324 516 192 709
254 856 273 43 6 187 15 319 21 266 11 343 23 435 70 110 55 186 69 468 81
141 6 298 9 348 7 83 -3 97 -7 140 -36 91 -59 130 -73 257 -88 188 -22 252
-62 298 -189 l15 -40 114 -6 c236 -13 419 -69 537 -163 33 -26 63 -39 136 -55
51 -12 107 -30 124 -41 17 -10 48 -47 68 -82 109 -185 248 -274 485 -308 119
-17 174 -42 212 -99 47 -70 78 -101 129 -126 49 -26 59 -39 59 -86 l0 -29 -41
45 c-94 102 -200 112 -273 25 -45 -54 -30 -99 59 -174 68 -58 85 -90 85 -155
l0 -51 53 -26 c164 -83 245 -141 274 -199 15 -29 14 -28 -20 8 -66 71 -152 86
-245 42 -72 -33 -97 -87 -112 -240 -13 -141 -17 -159 -41 -189 -34 -43 -22
-68 41 -88 30 -10 110 -46 178 -80 122 -63 123 -63 205 -62 68 0 104 8 212 43
178 57 236 62 345 24 47 -17 117 -38 156 -47 91 -22 124 -43 138 -86 10 -32
15 -35 46 -34 19 1 55 9 80 19 72 27 163 17 290 -34 182 -74 240 -114 240
-167 0 -21 -4 -19 -46 21 -76 74 -177 92 -239 43 -38 -30 -56 -72 -62 -151 -3
-40 -11 -83 -18 -97 l-13 -24 -15 35 c-33 79 -135 119 -207 82 -50 -26 -75
-75 -74 -148 0 -145 114 -231 319 -242 l90 -5 80 42 c58 31 90 42 120 42 231
-7 285 -9 287 -13 27 -42 91 -183 97 -208 3 -19 13 -37 21 -41 83 -38 115 -58
170 -103 128 -105 132 -110 140 -163 5 -27 6 -62 3 -78 -6 -28 -6 -27 -29 21
-52 110 -133 173 -245 194 -79 14 -143 2 -194 -36 -17 -14 -41 -25 -53 -25
-33 0 -72 -18 -72 -34 0 -7 -18 -51 -41 -96 -30 -59 -52 -89 -80 -108 -21 -15
-40 -33 -43 -40 -3 -8 1 -36 10 -64 23 -68 14 -220 -15 -281 -47 -98 -10 -141
153 -176 73 -16 89 -24 124 -59 22 -22 72 -59 112 -82 78 -46 100 -78 100
-147 l0 -38 -19 41 c-39 86 -140 141 -240 132 -88 -9 -119 -44 -142 -162 -8
-43 -20 -68 -44 -95 -39 -42 -51 -38 -36 16 32 115 4 150 -112 139 -90 -8
-155 -39 -182 -86 -29 -50 -28 -167 1 -207 28 -38 87 -70 154 -84 123 -25 230
-130 230 -226 0 -24 -4 -21 -32 27 -46 75 -98 102 -193 99 -38 -1 -78 1 -87 5
-33 14 -54 -11 -77 -91 -30 -103 -56 -152 -88 -164 -47 -18 -55 -5 -31 48 66
150 -37 309 -176 272 -36 -10 -78 -31 -166 -88 -14 -9 3 10 36 42 99 92 128
189 104 348 -23 157 -51 175 -200 124 -92 -31 -96 -31 -72 3 54 76 46 167 -22
260 -54 73 -159 154 -194 150 -32 -4 -38 -16 -52 -106 -8 -51 -19 -82 -37
-102 -28 -33 -70 -42 -58 -12 4 9 10 52 13 95 7 117 -29 197 -109 237 -53 28
-115 35 -180 21 -66 -14 -112 -44 -138 -91 -41 -75 -36 -142 21 -280 40 -96
44 -201 10 -265 l-21 -40 -1 88 c0 102 -13 140 -63 184 -43 38 -110 51 -168
34 -21 -7 -80 -40 -130 -74 -49 -34 -100 -69 -112 -77 -13 -9 -7 3 16 29 20
25 42 63 48 85 23 83 -11 227 -62 270 -37 32 -83 40 -168 32 l-66 -6 32 20
c46 27 64 61 70 128 4 46 1 66 -15 99 -59 114 -242 182 -419 155 -42 -7 -82
-17 -88 -22 -6 -5 -17 -33 -24 -62 -23 -104 -96 -198 -152 -198 -16 0 -14 8
16 68 48 95 50 107 23 135 -13 13 -29 35 -37 50 -22 42 -52 44 -114 8 -75 -43
-143 -56 -220 -42 -34 6 -73 19 -87 29 -34 26 -38 79 -9 116 l22 28 18 -35
c22 -42 64 -77 92 -77 37 0 106 41 148 88 83 94 107 186 73 285 l-16 47 -61
-34 c-66 -36 -131 -60 -147 -54 -6 2 6 25 25 53 20 27 43 74 51 103 15 52 15
56 -10 137 l-26 84 -53 -24 c-33 -16 -70 -25 -103 -25 l-51 0 48 49 c43 43 49
53 49 91 0 39 -5 48 -53 97 -49 48 -58 53 -99 53 -36 0 -59 -9 -129 -54 -47
-30 -106 -61 -132 -70 -49 -16 -161 -20 -207 -7 -24 7 -23 8 15 21 81 26 175
81 232 134 53 50 56 55 33 56 -35 0 -70 11 -70 20 0 5 18 35 40 67 22 32 43
75 47 96 5 33 2 42 -24 70 -17 18 -40 50 -53 73 -24 44 -65 74 -101 74 -13 0
-48 -15 -79 -34 -30 -19 -74 -39 -96 -46 -57 -17 -160 -5 -205 23 l-34 21 72
8 c110 11 150 38 177 116 23 65 29 133 14 162 -8 15 -28 29 -53 36 -34 9 -45
8 -75 -7 -37 -20 -130 -26 -130 -9 0 5 12 17 26 27 40 26 84 92 84 125 0 19
-13 42 -41 73 -22 24 -44 56 -48 72 l-8 28 -22 -43 c-19 -38 -63 -73 -76 -61
-2 3 3 24 11 48 24 71 0 124 -69 150 -61 23 -173 5 -217 -34 -16 -15 -18 -28
-13 -110 7 -113 -6 -170 -50 -214 -16 -18 -33 -29 -36 -26 -3 4 -11 38 -17 76
-15 86 -41 138 -83 163 -112 65 -382 -73 -342 -176 13 -33 49 -62 102 -82 49
-18 69 -45 69 -94 0 -53 20 -100 53 -125 53 -41 92 -121 92 -194 0 -52 -4 -68
-30 -104 -46 -65 -52 -61 -57 38 -6 117 -27 158 -111 214 -34 23 -81 59 -104
81 -24 21 -52 38 -64 38 -35 0 -128 -59 -133 -83 -23 -110 -31 -133 -61 -165
-29 -32 -39 -36 -94 -40 -33 -2 -61 -2 -61 1 0 2 9 26 21 52 13 28 23 78 26
124 9 127 -32 227 -108 266 -35 19 -148 20 -153 3 -3 -7 -12 -39 -22 -71 -11
-38 -27 -66 -46 -82 -49 -42 -55 -35 -60 68 -3 76 -9 103 -31 148 -39 78 -63
92 -177 100 -52 4 -112 13 -132 20 -30 10 -46 10 -80 0 -64 -19 -126 -58 -143
-91 -45 -87 8 -152 160 -195 69 -20 146 -57 193 -92 55 -41 87 -126 74 -192
l-7 -34 -55 72 c-118 156 -219 190 -295 100 -54 -65 -46 -109 41 -214 37 -44
73 -95 82 -115 17 -42 19 -115 2 -164 -13 -40 -30 -48 -30 -13 -1 30 -43 130
-75 177 -33 48 -89 87 -137 95 -35 7 -39 5 -59 -29 -24 -42 -47 -45 -90 -14
-21 16 -48 23 -93 26 -59 4 -66 2 -97 -26 l-33 -29 4 -89 c3 -49 5 -138 5
-197 0 -107 0 -109 -28 -133 -50 -43 -60 -34 -52 49 8 83 -7 182 -32 209 -24
27 -113 83 -153 97 -31 10 -40 9 -95 -18 -33 -17 -76 -43 -94 -59 -30 -25 -36
-37 -43 -88 -21 -170 -32 -197 -98 -241 -50 -35 -62 -31 -44 13 24 58 21 155
-7 211 -75 150 -288 127 -359 -38 -16 -38 -20 -62 -16 -88 4 -20 13 -115 21
-211 18 -221 29 -258 97 -327 28 -29 84 -99 122 -155 65 -93 77 -105 141 -139
107 -58 277 -112 356 -113 60 -1 75 3 148 42 68 35 90 42 139 42 57 0 139 -22
198 -53 l29 -15 -26 -10 c-35 -14 -89 -61 -89 -78 0 -32 129 -74 228 -74 61 0
64 1 106 45 52 53 79 65 152 65 150 0 295 -172 228 -269 l-17 -23 -28 58 c-38
78 -82 109 -158 109 -31 0 -78 -9 -105 -19 l-48 -18 6 -41 c11 -66 36 -106 92
-149 60 -45 68 -63 79 -186 6 -71 6 -73 -25 -104 -36 -35 -50 -28 -50 27 0 42
-19 107 -38 128 -17 20 -72 23 -105 6 -12 -7 -43 -31 -68 -54 -25 -23 -56 -46
-68 -50 -21 -6 -23 -11 -17 -51 7 -53 55 -150 97 -199 83 -95 203 -119 289
-58 25 17 72 39 105 48 79 22 108 45 148 113 29 51 39 59 87 76 70 23 189 33
219 17 23 -13 61 -67 61 -88 0 -9 -10 -8 -41 2 -80 29 -149 15 -149 -30 0 -37
10 -55 41 -71 27 -13 34 -12 121 22 51 20 116 41 143 47 49 10 54 9 155 -37
173 -78 209 -111 180 -166 -12 -22 -12 -22 -53 18 -50 49 -111 78 -191 90 -73
12 -93 7 -132 -30 -49 -46 -59 -89 -40 -179 24 -118 2 -169 -73 -169 l-30 0 5
53 c6 58 -7 89 -47 119 -30 23 -97 40 -105 27 -8 -14 24 -129 47 -166 40 -64
177 -133 266 -133 46 0 67 13 153 95 36 34 79 69 97 78 72 38 163 10 261 -78
47 -43 54 -46 89 -39 21 4 66 18 100 31 66 26 70 26 208 4 125 -21 158 -31
208 -69 60 -45 81 -81 68 -115 -15 -38 -27 -40 -41 -7 -26 63 -116 120 -190
120 -35 -1 -100 -32 -128 -63 -26 -27 -52 -94 -45 -113 2 -6 15 -16 29 -23 16
-7 34 -31 50 -69 14 -31 37 -79 51 -106 20 -38 26 -65 27 -113 1 -57 -2 -65
-29 -92 -16 -16 -42 -33 -56 -36 l-26 -6 4 73 c4 62 1 80 -19 118 -34 66 -89
94 -187 94 -92 -1 -139 -22 -193 -87 -24 -29 -48 -46 -69 -51 -27 -5 -30 -9
-25 -28 26 -97 15 -173 -29 -202 -22 -14 -24 -14 -35 14 -18 45 -93 120 -118
120 -26 0 -62 -33 -63 -57 -5 -78 57 -133 151 -133 80 0 130 -50 171 -172 16
-48 20 -81 17 -135 -3 -75 -20 -110 -65 -140 -22 -14 -22 -14 -16 61 10 135
-33 216 -115 216 -20 0 -57 10 -82 21 -91 41 -148 0 -174 -123 -8 -40 -18 -88
-21 -105 -6 -30 -27 -60 -97 -134 -30 -33 -75 -41 -63 -11 56 133 72 260 41
320 -21 40 -83 71 -143 72 -38 0 -44 -4 -70 -42 -54 -80 -157 -131 -226 -112
l-31 9 66 42 c94 58 103 76 90 164 -15 101 -46 156 -111 201 -30 20 -59 44
-64 53 -7 13 -23 3 -90 -62 -80 -77 -136 -113 -174 -113 -19 0 -18 3 5 73 20
56 25 93 26 167 1 123 -11 145 -82 152 -28 3 -81 20 -125 42 -78 39 -96 40
-144 10 -20 -12 -23 -23 -23 -74 0 -123 -46 -231 -106 -246 -34 -9 -44 7 -44
75 0 155 -62 195 -195 123 -44 -24 -55 -37 -96 -115 -57 -107 -91 -152 -129
-172 -29 -15 -81 -20 -93 -9 -3 3 12 28 33 56 45 60 75 144 65 188 -9 39 -46
84 -83 99 -27 11 -32 10 -60 -18 -23 -23 -40 -31 -66 -31 -37 0 -42 5 -27 29
11 17 -4 51 -22 51 -7 0 -47 17 -89 38 -59 29 -82 36 -95 28 -10 -5 -34 -12
-53 -16 l-34 -5 -13 -95 c-17 -136 -16 -286 3 -349 9 -33 30 -69 53 -94 33
-35 45 -41 102 -48 48 -7 95 -24 185 -70 185 -93 218 -91 339 18 136 124 206
133 296 41 82 -84 102 -169 53 -227 l-25 -31 33 -46 c29 -40 33 -54 33 -106
l-1 -60 31 6 c16 3 73 9 126 12 92 7 98 6 160 -24 83 -40 143 -92 179 -156 44
-76 38 -162 -14 -205 -14 -12 -16 -10 -16 13 0 41 -35 132 -70 179 -65 88
-149 119 -217 77 -42 -25 -57 -56 -89 -185 -20 -79 -35 -117 -55 -140 l-28
-32 20 -53 c29 -77 36 -198 15 -255 -17 -45 -47 -75 -74 -75 -8 0 -12 6 -9 14
3 8 1 45 -4 82 -21 149 -104 260 -213 285 -88 19 -106 9 -135 -79 -25 -73 -25
-73 -6 -125 32 -91 75 -181 105 -218 41 -51 53 -112 48 -227 -6 -126 -42 -202
-95 -202 -21 0 -23 3 -16 23 4 12 8 65 8 117 -1 84 -4 101 -28 147 -31 60 -82
115 -130 139 -46 24 -171 30 -202 10 -13 -9 -52 -56 -86 -106 -97 -143 -167
-188 -242 -156 -38 15 -50 36 -22 36 21 0 75 28 102 53 12 11 34 51 49 89 14
38 34 74 44 80 17 11 16 17 -20 88 -43 85 -81 136 -110 145 -23 7 -67 -14 -98
-48 -13 -14 -37 -31 -53 -37 -29 -12 -94 -7 -103 9 -3 4 16 22 43 39 49 32 91
79 112 125 9 21 6 34 -19 85 l-29 61 -29 -30 c-32 -34 -92 -53 -136 -44 l-30
7 35 37 c57 58 71 118 43 185 -19 46 -74 106 -98 106 -11 0 -42 -23 -69 -51
-47 -49 -50 -50 -101 -48 -56 2 -104 -15 -146 -55 -22 -19 -23 -26 -17 -93 6
-63 5 -76 -14 -106 -11 -19 -21 -50 -21 -69 0 -48 -46 -135 -81 -153 -30 -16
-85 -20 -93 -7 -2 4 2 32 10 62 20 73 15 213 -7 236 -10 10 -44 19 -85 24 -38
4 -88 15 -112 24 -41 15 -46 14 -98 -7 l-56 -22 6 -68 c7 -78 -4 -132 -35
-172 l-22 -27 -22 44 c-22 44 -19 43 -137 78 -25 7 -28 6 -28 -13 0 -26 40
-108 76 -157 31 -42 28 -61 -29 -154 -23 -38 -62 -104 -87 -145 -38 -63 -54
-80 -94 -100 -86 -43 -246 -40 -291 6 -16 15 -21 78 -7 87 5 3 31 -6 58 -20
129 -67 263 23 264 177 0 45 -4 59 -22 76 -32 30 -120 53 -202 54 -195 1 -262
23 -279 88 -11 43 -4 48 31 23 49 -35 76 -37 128 -8 29 16 62 26 88 26 60 0
86 10 90 34 2 11 9 48 14 81 6 33 13 68 17 77 4 11 -1 23 -16 35 -13 10 -36
30 -51 45 -22 21 -36 26 -56 22 -40 -8 -168 22 -218 51 -46 27 -64 51 -64 83
0 17 5 16 58 -10 99 -49 218 -37 244 24 37 89 55 113 98 138 35 21 48 35 59
68 19 60 11 72 -36 61 -37 -8 -95 -3 -122 11 -9 5 0 15 31 33 59 34 124 107
136 151 14 47 -1 97 -38 134 -39 40 -58 43 -121 21 -29 -11 -60 -19 -67 -19
-15 0 -82 65 -82 79 0 5 23 6 50 3 58 -5 83 10 106 65 30 71 4 222 -41 240 -9
3 -34 -4 -55 -16 -38 -21 -67 -25 -107 -15 -25 7 -31 24 -9 24 27 0 66 41 66
70 0 35 -17 53 -81 86 -27 13 -54 33 -61 44 -11 17 -14 15 -39 -29 -36 -62
-141 -159 -211 -194 -61 -31 -122 -43 -162 -33 -27 7 -56 51 -56 86 0 18 3 19
21 9 50 -26 172 23 185 75 14 58 -16 83 -139 117 -95 27 -140 52 -179 99 -18
23 -55 52 -83 67 -27 14 -57 34 -65 44 -15 19 -17 19 -48 4 -18 -9 -45 -15
-61 -13 -22 2 -35 -4 -50 -23 -11 -14 -40 -36 -64 -49 -29 -15 -51 -36 -61
-57 -11 -24 -30 -40 -62 -53 -39 -17 -44 -23 -34 -35 19 -23 78 -35 176 -35
57 0 96 -5 106 -12 19 -16 48 -142 48 -210 l0 -49 -50 60 c-76 91 -127 112
-169 67 -33 -35 -21 -59 62 -120 40 -30 80 -62 89 -72 17 -20 78 -165 78 -188
0 -18 40 -53 82 -71 21 -8 78 -19 127 -24 60 -7 105 -18 137 -34 27 -13 70
-27 96 -31 64 -9 88 -32 147 -134 63 -108 68 -156 21 -220 -32 -45 -45 -53
-36 -24 3 9 6 46 7 81 2 64 2 65 -42 103 -84 74 -117 92 -167 91 -26 -1 -68
-10 -94 -22 -47 -20 -47 -20 -36 -51 28 -81 -18 -163 -102 -183 -25 -6 -25 -5
-21 45 3 53 -13 128 -29 128 -21 0 -70 -54 -85 -95 -20 -52 -15 -94 21 -174
43 -96 28 -264 -36 -392 -16 -30 -35 -61 -44 -68 -26 -22 -68 -9 -94 29 l-23
35 32 7 c103 21 122 247 32 367 -56 73 -185 94 -238 37 -18 -19 -34 -26 -63
-26 -49 0 -55 6 -37 41 20 38 19 68 -5 107 -37 61 -146 90 -210 57 -34 -18
-70 -73 -70 -108 0 -14 11 -49 24 -77 26 -56 23 -84 -12 -123 -38 -43 -47 -39
-48 22 0 47 -8 71 -48 148 -35 68 -54 94 -76 103 -34 14 -56 37 -62 65 -3 12
-8 -1 -13 -30 -9 -61 -30 -115 -44 -115 -11 0 -15 12 -30 103 -19 106 -54 152
-125 164 -47 7 -93 -37 -168 -163 -79 -132 -111 -172 -151 -182 -31 -8 -32
-10 -38 -78 -7 -72 -26 -122 -62 -161 -32 -35 -42 -28 -43 31 -2 70 -29 150
-66 192 -33 37 -74 46 -85 17 -3 -9 4 -62 16 -117 30 -132 36 -204 22 -249
-14 -41 -63 -87 -93 -87 -18 0 -19 4 -13 49 9 65 -12 115 -58 137 -32 15 -36
15 -75 -5 -23 -12 -51 -21 -63 -21 -21 0 -21 -3 -17 -79 6 -105 36 -164 102
-206 43 -26 57 -29 120 -28 84 2 204 31 276 68 29 15 95 55 146 90 51 35 108
67 127 70 47 9 250 -12 296 -31 22 -8 58 -38 84 -69 42 -48 53 -55 104 -65
114 -23 243 -103 279 -172 19 -37 12 -88 -15 -112 -18 -17 -19 -16 -26 13 -3
17 -21 42 -38 57 -25 21 -38 25 -66 20 -70 -11 -195 -174 -189 -246 4 -52 65
-79 200 -90 57 -5 136 -16 176 -24 100 -22 117 -20 136 9 54 83 203 76 391
-18 108 -54 155 -105 155 -169 -1 -55 -16 -54 -79 4 -33 31 -81 64 -106 74
-43 16 -48 16 -81 1 -40 -20 -44 -45 -13 -88 27 -39 18 -64 -39 -100 l-46 -29
-12 56 c-7 39 -18 62 -35 75 -13 10 -26 19 -29 19 -13 0 -80 -63 -80 -76 0 -8
9 -42 20 -75 33 -96 7 -144 -85 -162 l-30 -6 3 70 c4 68 3 70 -31 104 -43 43
-73 45 -88 8 -17 -45 -4 -98 37 -154 47 -64 81 -79 183 -79 l79 0 66 -64 c70
-68 79 -91 56 -152 l-11 -27 -16 24 c-9 13 -34 43 -57 67 -93 99 -202 116
-275 43 -33 -33 -26 -60 25 -108 51 -46 51 -45 24 -173 -7 -30 -14 -65 -16
-77 -6 -31 -40 -52 -98 -59 l-47 -7 32 52 c44 70 50 142 17 190 -19 28 -126
100 -149 101 -4 0 -9 -11 -13 -23 -7 -31 -44 -77 -61 -77 -7 0 -27 11 -43 25
-69 58 -82 22 -52 -152 66 -400 31 -573 -117 -573 -43 0 -46 10 -16 55 49 73
64 161 42 250 l-11 44 -38 -30 c-20 -16 -46 -31 -56 -31 -35 -3 -73 12 -84 32
-9 16 -7 20 14 26 28 7 61 40 70 70 5 15 -1 31 -20 53 -37 45 -115 65 -218 58
-92 -6 -80 3 -159 -129 -80 -135 -148 -198 -214 -198 -18 0 -33 2 -33 5 0 2
13 25 30 51 38 60 87 179 96 230 6 38 4 40 -31 57 -20 9 -44 31 -53 47 -16 27
-21 30 -72 30 -98 0 -218 -42 -283 -100 -113 -99 -127 -253 -43 -461 58 -145
231 -392 321 -461 67 -52 336 -185 463 -231 250 -90 413 -114 646 -98 281 19
443 50 906 171 365 96 476 114 660 107 89 -4 216 -18 330 -36 102 -17 210 -31
240 -31 90 0 176 27 341 105 86 41 230 102 320 135 189 70 367 154 422 200 21
18 60 65 87 105 109 161 249 238 550 301 201 42 334 104 534 253 136 100 233
188 466 416 113 111 255 239 315 286 144 110 262 224 303 292 18 30 46 89 61
129 35 95 82 166 168 252 147 148 315 229 426 204 58 -13 128 -59 218 -144 77
-73 111 -96 164 -108 17 -4 91 -31 165 -61 152 -60 219 -75 331 -75 174 0 292
-53 362 -164 182 -288 301 -440 492 -631 366 -367 752 -593 1220 -715 121 -31
303 -65 311 -58 2 3 -136 115 -308 249 -489 381 -578 461 -678 605 -64 92 -99
169 -162 354 -56 164 -85 216 -251 443 -171 235 -261 378 -348 552 -164 332
-270 755 -286 1145 -5 137 -3 158 35 390 23 135 48 308 57 385 27 242 64 374
155 555 101 202 239 375 386 485 77 58 225 140 243 133 10 -3 -26 -71 -74
-137 -29 -39 -29 -41 -12 -65 17 -23 125 -33 185 -16 81 21 158 114 192 227
11 37 18 44 48 49 98 19 268 -27 313 -84 19 -25 26 -96 11 -118 -15 -23 -51
-33 -118 -35 -87 -2 -101 -6 -115 -30 -16 -31 30 -95 88 -121 42 -18 58 -20
172 -13 115 6 128 5 142 -12 41 -47 52 -155 20 -207 -23 -36 -58 -64 -121 -96
-25 -12 -53 -29 -62 -38 -64 -56 59 -122 170 -91 26 7 95 45 153 85 59 40 121
79 137 88 72 37 141 3 143 -71 2 -74 -3 -122 -16 -179 -15 -67 -7 -94 30 -94
38 0 71 16 116 57 103 93 122 257 48 424 -69 159 -42 235 88 245 68 6 98 -7
130 -55 28 -41 31 -134 7 -196 -41 -103 -28 -127 65 -126 108 0 162 43 198
155 l19 58 52 -56 c95 -105 90 -179 -16 -233 -49 -25 -57 -33 -57 -58 0 -23 8
-32 40 -49 57 -29 130 -26 237 11 l88 30 7 -36 c5 -20 8 -74 8 -121 0 -113
-22 -153 -130 -235 -95 -72 -101 -91 -52 -140 55 -55 99 -48 242 43 28 17 61
34 75 37 35 8 77 -26 86 -69 9 -49 -24 -119 -64 -135 -55 -23 -47 -70 16 -97
161 -67 253 -17 307 169 l16 57 70 0 c94 0 122 -24 154 -135 12 -44 30 -84 38
-89 24 -15 62 8 94 55 24 37 28 52 28 118 0 60 -5 86 -24 124 -29 60 -105 137
-161 165 l-43 21 54 24 c101 45 143 99 168 216 15 72 24 81 80 81 56 0 104
-27 126 -70 14 -27 15 -38 4 -81 -11 -43 -11 -51 3 -65 40 -40 153 27 176 104
16 52 15 88 -3 148 -16 56 -53 95 -135 143 -30 18 -75 52 -100 76 -46 44 -73
55 -175 75 -83 17 -85 20 -63 85 24 71 33 185 20 255 l-10 54 42 47 c23 26 55
76 72 112 25 57 33 66 61 72 18 3 47 18 65 33 28 24 40 27 99 26 117 -1 185
-61 242 -214 14 -35 34 -70 45 -78 17 -11 23 -9 52 15 49 41 70 95 70 185 0
119 -14 144 -139 244 -58 47 -127 98 -153 113 -26 14 -48 33 -48 41 0 8 -17
44 -38 80 -20 36 -45 84 -56 106 -10 23 -29 47 -42 53 -14 6 -71 11 -127 11
-56 0 -122 5 -146 11 -61 14 -134 -3 -207 -47 -58 -35 -61 -36 -145 -32 -102
5 -170 34 -206 88 -40 59 -21 140 33 140 39 0 64 -33 64 -84 0 -59 8 -76 35
-76 92 0 174 98 175 206 0 65 16 111 41 119 57 18 159 -65 159 -130 0 -24 6
-37 20 -45 28 -15 51 0 88 56 61 91 50 177 -29 249 -47 42 -90 64 -237 122
-133 52 -233 65 -312 40 l-45 -14 -42 38 c-27 25 -61 43 -100 54 -32 9 -118
34 -191 57 -164 50 -192 49 -407 -17 -186 -57 -229 -58 -332 -1 -37 20 -94 49
-126 64 -48 22 -57 30 -52 47 3 11 12 76 20 145 7 69 18 137 24 151 14 38 49
59 97 59 72 0 120 -57 144 -173 28 -138 115 -73 128 96 10 132 -55 219 -236
317 -95 50 -102 57 -102 85 -1 50 -34 106 -104 174 -69 69 -73 91 -17 91 38 0
83 -37 147 -119 31 -39 61 -71 68 -71 30 0 47 28 63 105 27 129 2 190 -98 241
-34 17 -58 39 -82 77 -66 101 -113 126 -297 157 -200 33 -314 105 -401 251
-69 116 -107 142 -250 174 -59 13 -89 26 -134 59 -105 79 -293 139 -498 159
l-119 11 -20 41 c-26 52 -83 112 -130 136 -47 24 -140 45 -238 54 -77 7 -130
27 -189 70 -18 14 -50 30 -70 36 -35 12 -293 19 -421 13z m4360 -4862 c0 -4
-9 -39 -20 -77 -11 -38 -20 -80 -20 -92 0 -33 -56 -26 -93 12 -23 22 -22 96 1
125 22 27 132 55 132 32z"/>
<path d="M18004 11118 c-71 -92 -334 -352 -447 -442 -415 -330 -885 -570
-1395 -710 -239 -66 -550 -116 -724 -116 -42 0 -79 -4 -83 -10 -9 -14 92 -89
170 -126 92 -44 219 -79 390 -110 323 -57 400 -75 475 -109 56 -26 117 -42
240 -64 1104 -198 2147 -172 3155 80 243 61 693 195 684 203 -2 2 -51 21 -109
41 -733 262 -1351 668 -1920 1263 l-155 162 -116 0 -116 0 -49 -62z"/>
<path d="M15399 9123 c62 -26 124 -75 229 -177 130 -126 310 -332 425 -483 7
-10 2 -10 -24 -1 -39 14 -163 96 -354 237 -77 56 -157 112 -179 123 -74 38
-69 7 33 -202 61 -126 73 -177 47 -199 -16 -14 -54 -7 -109 21 -65 32 -184
155 -347 358 -86 108 -178 214 -204 237 -136 120 -308 84 -330 -69 -10 -67 55
-430 99 -558 44 -128 136 -321 236 -495 90 -156 109 -202 109 -259 0 -34 -6
-50 -28 -74 -41 -44 -96 -56 -227 -49 -231 13 -561 132 -791 285 -112 75 -160
126 -212 228 -99 189 -222 277 -363 261 -76 -9 -134 -41 -207 -111 -38 -36
-72 -62 -78 -58 -24 15 -134 146 -263 312 -163 209 -275 330 -332 355 -37 17
-44 18 -68 4 -66 -37 -97 -170 -72 -315 52 -300 324 -813 647 -1220 184 -232
299 -340 439 -413 44 -23 139 -85 210 -137 441 -327 803 -497 1435 -675 205
-58 464 -112 640 -133 744 -91 1653 -11 2770 245 1260 289 2127 574 3060 1009
366 170 1138 582 979 522 -76 -29 -235 -45 -393 -39 -282 10 -509 58 -991 209
-88 27 -207 59 -265 70 -58 11 -231 51 -385 89 -439 109 -611 139 -630 109
-10 -16 24 -83 63 -123 99 -102 313 -191 787 -327 351 -101 528 -166 674 -247
64 -36 141 -98 141 -114 0 -18 -55 -8 -183 36 -73 24 -251 76 -397 115 -1137
306 -1302 356 -1720 520 -318 124 -504 180 -602 180 -40 0 -78 -24 -78 -49 0
-51 127 -186 254 -269 121 -79 379 -195 836 -377 245 -97 491 -199 547 -227
99 -48 163 -94 163 -118 0 -6 -17 -18 -37 -28 -53 -23 -312 -22 -443 2 -400
73 -796 224 -1604 611 -200 95 -409 190 -464 209 -166 57 -250 105 -649 368
-133 87 -279 176 -325 197 -46 21 -148 76 -228 121 -155 89 -381 202 -388 195
-8 -8 110 -147 228 -269 135 -140 408 -392 655 -608 193 -167 199 -180 61
-134 -190 64 -546 272 -833 488 -75 56 -122 105 -261 271 -362 433 -544 588
-687 586 l-50 -1 34 -15z"/>
<path d="M6671 8549 c-114 -76 -178 -177 -149 -236 18 -37 74 -73 114 -73 45
0 58 -26 49 -96 -9 -71 -58 -168 -115 -225 -40 -40 -94 -68 -106 -56 -2 2 3
23 11 47 34 96 4 150 -83 150 -75 0 -94 -29 -112 -177 -28 -222 -82 -280 -252
-274 l-28 1 35 46 c63 82 42 166 -58 228 -71 44 -126 42 -204 -6 -61 -38 -133
-52 -148 -28 -3 5 2 32 12 59 16 46 16 52 1 84 -19 39 -95 94 -145 103 -28 5
-49 -1 -109 -31 -83 -42 -122 -46 -160 -16 -31 25 -52 26 -98 7 -70 -29 -55
-78 60 -207 169 -188 186 -257 77 -312 -64 -33 -68 -31 -69 23 -2 95 -76 163
-193 177 -45 5 -55 3 -77 -18 -15 -13 -52 -79 -85 -145 -76 -160 -116 -190
-190 -147 -26 16 -28 20 -21 58 4 22 7 83 7 135 0 80 -4 103 -24 143 -110 224
-488 135 -811 -191 -199 -202 -309 -404 -367 -675 -25 -114 -24 -361 0 -477
56 -265 184 -522 382 -767 l66 -83 3070 0 3070 0 -18 31 c-28 47 -62 75 -77
64 -58 -43 -72 -49 -115 -49 -25 0 -57 7 -71 15 l-25 14 31 3 c47 5 67 33 72
101 7 93 -29 144 -191 271 -65 51 -88 59 -135 49 -89 -19 -109 -59 -86 -171
23 -113 16 -218 -15 -252 -20 -21 -34 -26 -76 -26 -28 0 -55 3 -58 6 -4 4 3
19 14 35 39 54 43 85 24 152 -10 34 -22 67 -27 73 -24 33 -139 19 -189 -23
-39 -33 -55 -66 -62 -130 -3 -29 -13 -66 -22 -83 -34 -65 -120 -88 -205 -54
l-40 16 44 39 c101 89 83 182 -48 239 -50 23 -83 25 -247 20 -84 -3 -102 0
-144 20 -46 22 -85 68 -85 101 0 15 5 15 61 -2 77 -24 163 -25 209 -1 48 23
75 78 98 197 11 55 23 110 27 123 7 21 5 22 -51 22 -109 0 -153 52 -118 141
28 70 44 89 103 119 74 37 93 60 99 118 4 44 1 52 -27 85 -40 45 -123 87 -174
87 -33 0 -45 -7 -81 -43 -52 -54 -124 -89 -194 -95 -68 -6 -66 7 8 51 73 44
83 66 70 154 -20 139 -58 223 -103 223 -12 0 -37 -9 -56 -21 -24 -14 -46 -19
-79 -17 -46 3 -47 4 -53 42 -8 48 -41 77 -119 107 -111 42 -200 34 -265 -22
-51 -46 -60 -90 -34 -175 27 -88 24 -199 -7 -241 -23 -32 -97 -73 -131 -73
l-22 0 19 43 c11 24 22 61 26 84 12 79 -52 173 -153 220 -69 32 -106 35 -111
8 -12 -71 -50 -105 -118 -105 -30 0 -34 2 -25 14 8 10 9 25 3 47 -7 28 -14 35
-48 42 -52 11 -153 3 -189 -16 -44 -22 -83 -62 -91 -91 -10 -39 2 -69 48 -126
89 -108 108 -140 108 -181 0 -50 -47 -104 -129 -148 l-60 -32 24 43 c36 65 40
108 17 160 -11 25 -33 54 -49 66 -50 35 -78 37 -143 8 -129 -58 -343 -87 -403
-54 -20 10 -13 13 56 24 43 7 89 20 103 29 33 21 61 69 69 116 8 45 -16 135
-43 170 -18 21 -25 22 -123 20 -91 -2 -109 1 -148 21 -44 23 -71 51 -59 63 3
3 27 1 54 -5 117 -26 182 22 214 158 11 48 15 53 34 47 147 -43 177 -48 276
-48 117 -1 183 18 259 73 127 92 199 277 188 485 -8 157 -52 272 -122 320
l-30 20 19 39 c17 35 18 46 8 95 -20 95 -88 171 -153 171 -15 0 -54 -18 -88
-41z"/>
<path d="M20000 8470 c0 -25 285 -179 471 -256 501 -205 1352 -382 2159 -449
l75 -6 125 98 125 98 -190 7 c-754 27 -1520 157 -2370 404 -360 104 -395 113
-395 104z"/>
<path d="M21710 8332 c-68 -15 -80 -41 -30 -67 150 -77 1033 -180 1388 -162
l112 6 100 72 c55 39 102 74 104 77 2 4 -80 8 -182 9 -103 1 -376 16 -607 33
-425 31 -821 45 -885 32z"/>
<path d="M10734 7555 c-47 -21 -101 -87 -118 -146 -22 -71 -20 -134 5 -215 20
-65 27 -75 128 -171 58 -57 122 -110 141 -120 19 -9 73 -20 121 -24 121 -11
179 -36 289 -125 116 -92 131 -100 211 -113 157 -26 301 -211 334 -431 l7 -45
-44 46 c-58 60 -130 109 -185 125 -83 25 -142 -21 -108 -86 33 -65 201 -156
343 -186 79 -17 86 -17 157 0 120 28 154 14 305 -128 158 -148 220 -181 398
-211 52 -8 106 -22 121 -30 33 -17 87 -75 96 -104 6 -21 9 -21 597 -21 l591 0
-6 38 c-8 46 -47 83 -200 186 -120 80 -220 131 -241 123 -7 -3 -23 -26 -36
-51 -24 -51 -62 -83 -109 -92 -91 -18 -165 58 -240 248 -30 74 -81 132 -135
153 -62 24 -117 7 -173 -51 l-43 -44 -23 37 c-66 106 -160 304 -211 445 -24
66 -125 205 -226 312 -129 135 -202 173 -245 126 -28 -31 -15 -90 51 -230 50
-105 59 -134 59 -180 0 -87 -51 -178 -77 -138 -4 7 -17 45 -29 83 -27 90 -62
151 -99 170 -38 20 -53 19 -73 -3 -23 -26 -21 -72 8 -177 42 -153 71 -200 204
-327 132 -127 164 -166 185 -226 14 -39 14 -42 -2 -42 -26 0 -100 50 -151 101
-38 38 -90 104 -153 193 -10 13 -42 36 -72 49 -55 25 -55 25 -76 99 -89 304
-167 545 -187 573 -7 11 -37 31 -66 45 -43 21 -54 32 -65 65 -24 72 -45 105
-79 126 -69 43 -79 6 -33 -112 16 -43 33 -102 36 -132 6 -54 5 -57 -27 -89
l-34 -33 -6 50 c-7 70 -39 166 -63 193 -11 12 -56 44 -100 70 -44 26 -94 55
-110 65 -23 14 -46 17 -90 14 -52 -3 -62 -7 -85 -35 -83 -102 -74 -95 -103
-81 -36 16 -61 71 -55 118 3 20 15 63 27 96 27 73 22 131 -15 187 -46 69 -144
97 -221 63z"/>
</g>
</svg>
