<?xml version="1.0" standalone="no"?>
<!DOCTYPE svg PUBLIC "-//W3C//DTD SVG 20010904//EN"
 "http://www.w3.org/TR/2001/REC-SVG-20010904/DTD/svg10.dtd">
<svg version="1.0" xmlns="http://www.w3.org/2000/svg"
 viewBox="0 0 2600.000000 2600.000000"
 preserveAspectRatio="xMidYMid meet">
<metadata>
Created by potrace 1.15, written by Peter Selinger 2001-2017
</metadata>
<g transform="translate(0.000000,2600.000000) scale(0.100000,-0.100000)"
fill="#000000" stroke="none">
<path d="M15840 19789 c-99 -9 -152 -29 -168 -63 -16 -32 -32 -178 -25 -223 6
-38 1 -40 -35 -14 -71 50 -203 103 -289 116 l-42 7 -47 -64 c-51 -68 -97 -160
-116 -232 l-12 -45 -77 82 c-42 45 -90 90 -106 99 -29 17 -31 17 -109 -22
-234 -117 -420 -408 -495 -773 -40 -197 -43 -465 -9 -707 26 -185 91 -412 152
-535 34 -67 105 -161 148 -195 l41 -32 55 28 c66 33 179 148 245 250 118 179
237 472 289 714 21 99 19 98 62 19 188 -348 462 -640 671 -718 88 -32 101 -29
142 32 113 167 146 550 81 931 -14 82 -26 151 -26 153 0 2 28 -19 63 -46 360
-282 823 -458 1052 -400 39 10 46 16 55 48 35 128 -18 351 -146 601 -320 630
-872 1033 -1354 989z"/>
<path d="M12205 19538 c-3 -7 -4 -701 -3 -1543 l3 -1530 548 -3 547 -2 0 1545
0 1545 -545 0 c-427 0 -547 -3 -550 -12z"/>
<path d="M9450 17581 c-310 -69 -618 -265 -865 -552 -276 -322 -425 -613 -428
-837 -1 -94 -2 -93 82 -118 84 -25 254 -15 402 25 199 52 430 153 624 274 50
30 91 54 93 52 2 -2 -8 -41 -22 -86 -70 -233 -108 -547 -88 -730 13 -123 40
-217 81 -280 l29 -46 57 9 c214 33 509 283 751 632 l68 100 18 -119 c63 -420
233 -816 410 -956 71 -55 88 -58 144 -17 174 124 330 496 395 943 7 50 13 171
13 270 0 146 -4 201 -22 292 -24 120 -77 285 -119 367 -72 144 -208 295 -315
351 l-56 29 -37 -19 c-21 -11 -73 -53 -115 -93 l-78 -72 -17 77 c-21 97 -54
178 -94 237 -29 42 -35 46 -74 46 -60 0 -180 -35 -260 -76 -38 -18 -70 -34
-71 -34 -1 0 2 32 8 71 10 81 -4 206 -26 221 -82 53 -334 73 -488 39z"/>
<path d="M12205 15878 c-3 -7 -4 -701 -3 -1543 l3 -1530 548 -3 547 -2 0 1545
0 1545 -545 0 c-427 0 -547 -3 -550 -12z"/>
<path d="M15830 14679 c-92 -11 -143 -31 -158 -62 -17 -34 -33 -175 -25 -221
3 -20 3 -36 0 -36 -4 0 -34 18 -67 39 -61 40 -180 84 -256 96 -39 6 -42 4 -76
-37 -52 -64 -88 -130 -118 -218 l-27 -78 -46 54 c-45 54 -114 116 -148 134
-13 7 -38 -1 -100 -32 -66 -33 -101 -60 -174 -132 -171 -173 -280 -411 -331
-721 -21 -127 -21 -417 0 -576 28 -218 90 -448 158 -584 34 -67 105 -161 148
-195 l41 -32 55 28 c65 33 179 148 242 244 117 179 233 462 287 700 8 36 17
76 21 89 4 20 13 9 61 -75 195 -347 450 -617 656 -693 87 -32 99 -29 141 32
129 187 152 601 60 1057 l-7 34 64 -50 c352 -278 820 -459 1046 -405 46 11 51
16 62 50 71 240 -182 786 -534 1150 -204 212 -424 349 -660 414 -50 14 -228
40 -245 36 -3 -1 -34 -5 -70 -10z"/>
<path d="M9466 12475 c-368 -76 -719 -324 -1007 -711 -207 -278 -325 -562
-303 -727 6 -42 10 -47 48 -63 61 -25 212 -30 326 -10 202 35 529 169 745 304
44 28 81 49 83 47 2 -2 -8 -41 -22 -86 -41 -135 -75 -323 -88 -480 -18 -228 8
-408 77 -525 l27 -47 60 6 c131 12 305 125 498 323 120 124 174 190 270 330
l56 82 12 -96 c52 -408 234 -841 414 -983 72 -56 88 -58 147 -14 192 140 358
574 402 1049 32 341 -46 696 -205 935 -58 87 -181 204 -251 238 l-54 27 -37
-20 c-21 -10 -73 -52 -115 -92 l-76 -72 -22 93 c-21 90 -73 210 -107 248 -33
37 -180 11 -314 -54 -36 -18 -68 -33 -71 -35 -3 -1 -1 30 4 69 11 81 -3 206
-25 221 -7 4 -42 18 -78 29 -84 28 -291 35 -394 14z"/>
<path d="M12205 12218 c-3 -7 -4 -701 -3 -1543 l3 -1530 548 -3 547 -2 0 1545
0 1545 -545 0 c-427 0 -547 -3 -550 -12z"/>
<path d="M12207 8563 c-4 -3 -7 -699 -7 -1545 l0 -1538 550 0 550 0 0 1545 0
1545 -543 0 c-299 0 -547 -3 -550 -7z"/>
</g>
</svg>
